<svg width="129" height="91" viewBox="0 0 129 91" fill="none" xmlns="http://www.w3.org/2000/svg">
<path fill-rule="evenodd" clip-rule="evenodd" d="M121.487 31.9685C121.487 38.9745 111.884 40.5641 99.6582 40.4757C101.54 33.3667 107.097 26.1694 114.522 26.1694C118.656 26.1694 121.487 28.23 121.487 31.8655V31.9685ZM122.05 57.9466C119.219 59.4478 115.174 61.1257 109.809 61.1257C105.097 61.1257 101.437 59.0652 99.6434 55.047C98.6061 52.6185 98.3245 48.409 98.695 46.4514C115.544 46.7311 129 43.5519 129 31.6888C129 25.2421 124.288 20.1054 115.633 20.1054C100.947 20.1054 90.7964 35.5303 90.7964 49.1744C90.7964 59.1682 96.072 67.3958 108.105 67.3958C114.225 67.3958 119.768 65.7179 123.161 63.7456L122.05 57.9466ZM78.8671 31.9685C78.8671 38.9745 69.2643 40.5641 57.0386 40.4757C58.9206 33.3667 64.4778 26.1694 71.9021 26.1694C76.0366 26.1694 78.8671 28.23 78.8671 31.8655V31.9685ZM79.4302 57.9466C76.6146 59.4478 72.5542 61.1257 67.1897 61.1257C62.4772 61.1257 58.8169 59.0652 57.0238 55.047C55.9864 52.6185 55.7049 48.409 56.0754 46.4514C72.9246 46.7311 86.3952 43.5519 86.3952 31.6888C86.3952 25.2421 81.6827 20.1054 73.0284 20.1054C58.3427 20.1054 48.1916 35.5303 48.1916 49.1744C48.1916 59.1682 53.4672 67.3958 65.5003 67.3958C71.6206 67.3958 77.1629 65.7179 80.5565 63.7456L79.4302 57.9466ZM9.60276 44.1112C11.8553 33.455 18.8202 26.5374 25.6074 26.5374C31.8165 26.5374 34.2617 31.7771 34.2617 37.3849C34.2617 47.3787 27.1041 61.3171 15.3526 61.3171C10.4623 61.3171 8.01712 58.8885 8.01712 54.5907C7.9282 52.2505 8.20976 50.3813 8.58024 48.8947L9.60276 44.1112ZM10.6401 0L0.755773 48.7034C0.385296 50.8523 0 53.5605 0 55.7093C0 64.1283 6.01654 67.3958 14.0188 67.3958C32.2759 67.3958 42.3381 50.2046 42.3381 36.3693C42.3381 28.333 38.574 20.1054 28.6008 20.1054C22.4805 20.1054 16.6566 23.2846 12.5962 29.3633H12.4036L18.4497 0H10.6401Z" fill="#141414"/>
<path d="M22.0117 80.5101H26.2219C27.278 80.5101 28.2152 80.718 29.0335 81.1338C29.8517 81.5496 30.4844 82.1355 30.9316 82.8915C31.3883 83.638 31.6167 84.498 31.6167 85.4713C31.6167 86.4447 31.3883 87.3093 30.9316 88.0653C30.4844 88.8119 29.8517 89.3931 29.0335 89.8089C28.2152 90.2247 27.278 90.4326 26.2219 90.4326H22.0117V80.5101ZM26.1363 89.1993C26.945 89.1993 27.6538 89.0434 28.2628 88.7316C28.8812 88.4197 29.357 87.985 29.69 87.4275C30.023 86.8605 30.1895 86.2084 30.1895 85.4713C30.1895 84.7342 30.023 84.0869 29.69 83.5293C29.357 82.9623 28.8812 82.5229 28.2628 82.2111C27.6538 81.8992 26.945 81.7433 26.1363 81.7433H23.4389V89.1993H26.1363Z" fill="#141414"/>
<path d="M43.1738 89.1993V90.4326H35.9236V80.5101H42.9739V81.7433H37.3508V84.7909H42.3603V85.9958H37.3508V89.1993H43.1738Z" fill="#141414"/>
<path d="M47.6056 80.5101H49.0328V89.1993H54.4418V90.4326H47.6056V80.5101Z" fill="#141414"/>
<path d="M58.2004 80.5101H59.6276V90.4326H58.2004V80.5101Z" fill="#141414"/>
<path d="M73.3192 80.5101L68.9377 90.4326H67.5248L63.1291 80.5101H64.6704L68.267 88.6607L71.892 80.5101H73.3192Z" fill="#141414"/>
<path d="M83.9642 89.1993V90.4326H76.7141V80.5101H83.7644V81.7433H78.1413V84.7909H83.1507V85.9958H78.1413V89.1993H83.9642Z" fill="#141414"/>
<path d="M95.0753 90.4326L92.9202 87.3849C92.6538 87.4038 92.4445 87.4133 92.2923 87.4133H89.8232V90.4326H88.396V80.5101H92.2923C93.5863 80.5101 94.6043 80.8172 95.3465 81.4314C96.0886 82.0457 96.4597 82.8915 96.4597 83.9688C96.4597 84.7342 96.2694 85.3863 95.8888 85.9249C95.5082 86.4636 94.9659 86.8557 94.2618 87.1014L96.6309 90.4326H95.0753ZM92.2495 86.2084C93.1533 86.2084 93.8432 86.0147 94.3189 85.6272C94.7946 85.2398 95.0325 84.687 95.0325 83.9688C95.0325 83.2506 94.7946 82.7025 94.3189 82.3245C93.8432 81.937 93.1533 81.7433 92.2495 81.7433H89.8232V86.2084H92.2495Z" fill="#141414"/>
<path d="M104.572 87.0022V90.4326H103.159V86.9739L99.1913 80.5101H100.718L103.915 85.7406L107.127 80.5101H108.539L104.572 87.0022Z" fill="#141414"/>
</svg>
