<svg width="182" height="128" viewBox="0 0 182 128" fill="none" xmlns="http://www.w3.org/2000/svg">
<path fill-rule="evenodd" clip-rule="evenodd" d="M171.4 45.2274C171.4 55.1391 157.852 57.3879 140.603 57.263C143.258 47.2055 151.099 37.0231 161.573 37.0231C167.407 37.0231 171.4 39.9383 171.4 45.0816V45.2274ZM172.194 81.9798C168.201 84.1037 162.493 86.4775 154.925 86.4775C148.276 86.4775 143.112 83.5623 140.582 77.8777C139.119 74.4419 138.721 68.4865 139.244 65.7171C163.016 66.1127 182 61.615 182 44.8317C182 35.7113 175.351 28.4441 163.141 28.4441C142.422 28.4441 128.1 50.2665 128.1 69.5693C128.1 83.7081 135.543 95.3481 152.52 95.3481C161.155 95.3481 168.975 92.9743 173.762 90.184L172.194 81.9798ZM111.27 45.2274C111.27 55.1391 97.7218 57.3879 80.4731 57.263C83.1283 47.2055 90.9686 37.0231 101.443 37.0231C107.277 37.0231 111.27 39.9383 111.27 45.0816V45.2274ZM112.064 81.9798C108.092 84.1037 102.363 86.4775 94.7947 86.4775C88.1461 86.4775 82.982 83.5623 80.4521 77.8777C78.9886 74.4419 78.5914 68.4865 79.1141 65.7171C102.886 66.1127 121.891 61.615 121.891 44.8317C121.891 35.7113 115.242 28.4441 103.032 28.4441C82.3129 28.4441 67.9913 50.2665 67.9913 69.5693C67.9913 83.7081 75.4343 95.3481 92.4113 95.3481C101.046 95.3481 108.865 92.9743 113.653 90.184L112.064 81.9798ZM13.5481 62.4063C16.726 47.3305 26.5526 37.5437 36.1282 37.5437C44.8885 37.5437 48.3382 44.9567 48.3382 52.8902C48.3382 67.0289 38.2399 86.7482 21.6602 86.7482C14.7607 86.7482 11.311 83.3125 11.311 77.2322C11.1855 73.9213 11.5828 71.2768 12.1055 69.1737L13.5481 62.4063ZM15.0116 0L1.06628 68.903C0.543596 71.9432 0 75.7746 0 78.8147C0 90.7254 8.48845 95.3481 19.7785 95.3481C45.5366 95.3481 59.7328 71.0269 59.7328 51.4534C59.7328 40.0841 54.4223 28.4441 40.3515 28.4441C31.7167 28.4441 23.5001 32.9418 17.7714 41.5417H17.4996L26.0299 0H15.0116Z" fill="#141414"/>
<path d="M31.0559 113.902H36.9959C38.4859 113.902 39.8082 114.196 40.9626 114.784C42.117 115.373 43.0097 116.202 43.6406 117.271C44.285 118.327 44.6071 119.544 44.6071 120.921C44.6071 122.298 44.285 123.521 43.6406 124.591C43.0097 125.647 42.117 126.469 40.9626 127.058C39.8082 127.646 38.4859 127.94 36.9959 127.94H31.0559V113.902ZM36.8751 126.195C38.0161 126.195 39.0162 125.975 39.8753 125.533C40.7478 125.092 41.419 124.477 41.8888 123.688C42.3587 122.886 42.5936 121.964 42.5936 120.921C42.5936 119.878 42.3587 118.962 41.8888 118.174C41.419 117.371 40.7478 116.75 39.8753 116.309C39.0162 115.867 38.0161 115.647 36.8751 115.647H33.0695V126.195H36.8751Z" fill="#141414"/>
<path d="M60.9125 126.195V127.94H50.6836V113.902H60.6306V115.647H52.6972V119.958H59.7647V121.663H52.6972V126.195H60.9125Z" fill="#141414"/>
<path d="M67.1651 113.902H69.1787V126.195H76.8101V127.94H67.1651V113.902Z" fill="#141414"/>
<path d="M82.1129 113.902H84.1264V127.94H82.1129V113.902Z" fill="#141414"/>
<path d="M103.443 113.902L97.2617 127.94H95.2682L89.0665 113.902H91.2411L96.3153 125.433L101.43 113.902H103.443Z" fill="#141414"/>
<path d="M118.462 126.195V127.94H108.233V113.902H118.18V115.647H110.247V119.958H117.314V121.663H110.247V126.195H118.462Z" fill="#141414"/>
<path d="M134.138 127.94L131.097 123.628C130.722 123.655 130.426 123.668 130.211 123.668H126.728V127.94H124.714V113.902H130.211C132.037 113.902 133.473 114.337 134.52 115.206C135.568 116.075 136.091 117.271 136.091 118.795C136.091 119.878 135.823 120.801 135.286 121.563C134.749 122.325 133.984 122.88 132.99 123.227L136.333 127.94H134.138ZM130.151 121.964C131.426 121.964 132.4 121.69 133.071 121.142C133.742 120.593 134.077 119.811 134.077 118.795C134.077 117.779 133.742 117.004 133.071 116.469C132.4 115.921 131.426 115.647 130.151 115.647H126.728V121.964H130.151Z" fill="#141414"/>
<path d="M147.536 123.087V127.94H145.543V123.047L139.945 113.902H142.1L146.61 121.302L151.14 113.902H153.134L147.536 123.087Z" fill="#141414"/>
</svg>
