<svg width="97" height="68" viewBox="0 0 97 68" fill="none" xmlns="http://www.w3.org/2000/svg">
<path fill-rule="evenodd" clip-rule="evenodd" d="M91.3505 24.0383C91.3505 29.3064 84.1298 30.5017 74.9368 30.4353C76.352 25.0897 80.5306 19.6778 86.1133 19.6778C89.2222 19.6778 91.3505 21.2272 91.3505 23.9608V24.0383ZM91.7739 43.5722C89.6456 44.7011 86.6036 45.9628 82.5698 45.9628C79.0263 45.9628 76.274 44.4133 74.9257 41.3919C74.1457 39.5658 73.9339 36.4006 74.2125 34.9286C86.8821 35.1389 97 32.7483 97 23.828C97 18.9805 93.4565 15.118 86.949 15.118C75.9063 15.118 68.2733 26.7166 68.2733 36.9761C68.2733 44.4908 72.2402 50.6775 81.2883 50.6775C85.8904 50.6775 90.0579 49.4158 92.6096 47.9328L91.7739 43.5722ZM59.3032 24.0383C59.3032 29.3064 52.0825 30.5017 42.8895 30.4353C44.3047 25.0897 48.4833 19.6778 54.0659 19.6778C57.1748 19.6778 59.3032 21.2272 59.3032 23.9608V24.0383ZM59.7266 43.5722C57.6094 44.7011 54.5562 45.9628 50.5225 45.9628C46.979 45.9628 44.2267 44.4133 42.8783 41.3919C42.0983 39.5658 41.8866 36.4006 42.1652 34.9286C54.8348 35.1389 64.9638 32.7483 64.9638 23.828C64.9638 18.9805 61.4203 15.118 54.9128 15.118C43.8701 15.118 36.2371 26.7166 36.2371 36.9761C36.2371 44.4908 40.204 50.6775 49.2522 50.6775C53.8542 50.6775 58.0217 49.4158 60.5735 47.9328L59.7266 43.5722ZM7.22068 33.1689C8.91442 25.1561 14.1516 19.9545 19.2551 19.9545C23.9241 19.9545 25.7627 23.8944 25.7627 28.1111C25.7627 35.6258 20.3806 46.1066 11.5442 46.1066C7.86697 46.1066 6.02837 44.2805 6.02837 41.0489C5.96152 39.2891 6.17323 37.8836 6.45181 36.7658L7.22068 33.1689ZM8.00069 0L0.568294 36.6219C0.289719 38.2377 0 40.2741 0 41.89C0 48.2205 4.52407 50.6775 10.5413 50.6775C24.2695 50.6775 31.8356 37.7508 31.8356 27.3475C31.8356 21.3047 29.0053 15.118 21.506 15.118C16.904 15.118 12.5248 17.5086 9.47157 22.0794H9.32671L13.8731 0H8.00069Z" fill="#141414"/>
<path d="M16.5515 60.5386H19.7173C20.5114 60.5386 21.2161 60.6949 21.8314 61.0076C22.4467 61.3202 22.9224 61.7608 23.2587 62.3292C23.6021 62.8906 23.7738 63.5372 23.7738 64.2691C23.7738 65.001 23.6021 65.6512 23.2587 66.2197C22.9224 66.781 22.4467 67.218 21.8314 67.5307C21.2161 67.8434 20.5114 67.9997 19.7173 67.9997H16.5515V60.5386ZM19.6529 67.0724C20.261 67.0724 20.794 66.9551 21.2519 66.7206C21.7169 66.4861 22.0746 66.1593 22.325 65.74C22.5755 65.3137 22.7007 64.8234 22.7007 64.2691C22.7007 63.7149 22.5755 63.2281 22.325 62.8089C22.0746 62.3825 21.7169 62.0521 21.2519 61.8176C20.794 61.5831 20.261 61.4659 19.6529 61.4659H17.6246V67.0724H19.6529Z" fill="#141414"/>
<path d="M32.464 67.0724V67.9997H27.0124V60.5386H32.3138V61.4659H28.0855V63.7575H31.8523V64.6635H28.0855V67.0724H32.464Z" fill="#141414"/>
<path d="M35.7965 60.5386H36.8696V67.0724H40.9369V67.9997H35.7965V60.5386Z" fill="#141414"/>
<path d="M43.7631 60.5386H44.8363V67.9997H43.7631V60.5386Z" fill="#141414"/>
<path d="M55.1315 60.5386L51.8369 67.9997H50.7745L47.4692 60.5386H48.6282L51.3326 66.6673L54.0584 60.5386H55.1315Z" fill="#141414"/>
<path d="M63.1359 67.0724V67.9997H57.6843V60.5386H62.9857V61.4659H58.7574V63.7575H62.5242V64.6635H58.7574V67.0724H63.1359Z" fill="#141414"/>
<path d="M71.4908 67.9997L69.8703 65.7081C69.67 65.7223 69.5126 65.7294 69.3981 65.7294H67.5415V67.9997H66.4684V60.5386H69.3981C70.3711 60.5386 71.1366 60.7695 71.6946 61.2314C72.2527 61.6933 72.5317 62.3292 72.5317 63.1393C72.5317 63.7149 72.3886 64.2052 72.1025 64.6102C71.8163 65.0152 71.4085 65.3101 70.8791 65.4949L72.6605 67.9997H71.4908ZM69.3659 64.8234C70.0456 64.8234 70.5643 64.6777 70.922 64.3864C71.2797 64.095 71.4586 63.6793 71.4586 63.1393C71.4586 62.5993 71.2797 62.1871 70.922 61.9029C70.5643 61.6116 70.0456 61.4659 69.3659 61.4659H67.5415V64.8234H69.3659Z" fill="#141414"/>
<path d="M78.6316 65.4203V67.9997H77.5692V65.399L74.5858 60.5386H75.7341L78.1379 64.4716L80.5525 60.5386H81.615L78.6316 65.4203Z" fill="#141414"/>
</svg>
