<svg width="454" height="282" viewBox="0 0 454 282" fill="none" xmlns="http://www.w3.org/2000/svg">
<path d="M75.3466 1.78659L49.3254 74.1592H26.9617L0.94043 1.78659H19.96L38.1435 56.4268L56.4315 1.78659H75.3466ZM75.082 45.2926C75.082 39.3818 76.1967 34.1927 78.4262 29.7253C80.7253 25.2578 83.8255 21.8213 87.727 19.4158C91.6284 17.0103 95.9826 15.8075 100.79 15.8075C104.901 15.8075 108.488 16.6322 111.553 18.2818C114.689 19.9312 117.092 22.0963 118.764 24.7768V16.6322H136.634V74.1592H118.764V66.0146C117.022 68.6951 114.584 70.8602 111.449 72.5096C108.383 74.1592 104.796 74.9839 100.685 74.9839C95.9478 74.9839 91.6284 73.7812 87.727 71.3756C83.8255 68.9013 80.7253 65.4304 78.4262 60.963C76.1967 56.4268 75.082 51.2034 75.082 45.2926ZM118.764 45.3958C118.764 40.997 117.511 37.5261 115.002 34.9831C112.564 32.4401 109.568 31.1686 106.015 31.1686C102.461 31.1686 99.4309 32.4401 96.9232 34.9831C94.4848 37.4574 93.2656 40.8939 93.2656 45.2926C93.2656 49.6913 94.4848 53.1965 96.9232 55.8083C99.4309 58.3513 102.461 59.6228 106.015 59.6228C109.568 59.6228 112.564 58.3513 115.002 55.8083C117.511 53.2653 118.764 49.7945 118.764 45.3958ZM219.788 16.0137C227.035 16.0137 232.781 18.1787 237.031 22.5087C241.351 26.8386 243.511 32.8525 243.511 40.5502V74.1592H225.745V42.9215C225.745 39.21 224.735 36.3577 222.714 34.3646C220.764 32.3027 218.047 31.2717 214.563 31.2717C211.08 31.2717 208.328 32.3027 206.308 34.3646C204.357 36.3577 203.382 39.21 203.382 42.9215V74.1592H185.616V42.9215C185.616 39.21 184.606 36.3577 182.585 34.3646C180.635 32.3027 177.917 31.2717 174.434 31.2717C170.951 31.2717 168.199 32.3027 166.179 34.3646C164.228 36.3577 163.252 39.21 163.252 42.9215V74.1592H145.383V16.6322H163.252V23.8489C165.064 21.4433 167.433 19.5532 170.359 18.1787C173.284 16.7354 176.594 16.0137 180.286 16.0137C184.675 16.0137 188.577 16.9416 191.99 18.7972C195.474 20.6529 198.191 23.2991 200.142 26.7355C202.162 23.5739 204.914 20.9966 208.398 19.0034C211.881 17.0103 215.678 16.0137 219.788 16.0137ZM278.372 74.9839C272.659 74.9839 267.504 73.7812 262.905 71.3756C258.377 68.9701 254.79 65.5336 252.142 61.0662C249.564 56.5987 248.276 51.3752 248.276 45.3958C248.276 39.485 249.599 34.2958 252.247 29.8284C254.894 25.2922 258.517 21.8213 263.115 19.4158C267.713 17.0103 272.869 15.8075 278.581 15.8075C284.294 15.8075 289.449 17.0103 294.047 19.4158C298.646 21.8213 302.269 25.2922 304.916 29.8284C307.564 34.2958 308.887 39.485 308.887 45.3958C308.887 51.3064 307.529 56.53 304.812 61.0662C302.164 65.5336 298.506 68.9701 293.839 71.3756C289.24 73.7812 284.085 74.9839 278.372 74.9839ZM278.372 59.7259C281.786 59.7259 284.678 58.4887 287.046 56.0145C289.485 53.5402 290.703 50.0006 290.703 45.3958C290.703 40.7908 289.519 37.2512 287.15 34.7769C284.852 32.3027 281.995 31.0656 278.581 31.0656C275.098 31.0656 272.207 32.3027 269.907 34.7769C267.609 37.1825 266.459 40.7221 266.459 45.3958C266.459 50.0006 267.574 53.5402 269.802 56.0145C272.102 58.4887 274.959 59.7259 278.372 59.7259ZM337.909 74.9839C332.823 74.9839 328.295 74.1248 324.324 72.4066C320.353 70.6883 317.218 68.3515 314.919 65.3961C312.62 62.372 311.331 59.0042 311.052 55.2928H328.714C328.922 57.286 329.863 58.9011 331.535 60.1383C333.207 61.3754 335.263 61.9939 337.701 61.9939C339.93 61.9939 341.636 61.5816 342.821 60.7568C344.076 59.8633 344.703 58.7293 344.703 57.3547C344.703 55.7051 343.831 54.5024 342.089 53.7464C340.348 52.9216 337.527 52.0281 333.625 51.0659C329.445 50.1037 325.961 49.1071 323.175 48.0762C320.387 46.9765 317.984 45.2926 315.964 43.0245C313.943 40.6877 312.934 37.5605 312.934 33.6429C312.934 30.3439 313.84 27.3541 315.651 24.6736C317.532 21.9245 320.249 19.7594 323.802 18.1787C327.425 16.5979 331.709 15.8075 336.655 15.8075C343.971 15.8075 349.718 17.5945 353.898 21.1684C358.149 24.7424 360.587 29.4847 361.214 35.3955H344.703C344.424 33.4024 343.518 31.8216 341.986 30.6531C340.522 29.4847 338.571 28.9005 336.133 28.9005C334.043 28.9005 332.441 29.3129 331.326 30.1377C330.211 30.8937 329.653 31.959 329.653 33.3336C329.653 34.9831 330.525 36.2203 332.267 37.045C334.078 37.8698 336.865 38.6945 340.626 39.5193C344.946 40.619 348.464 41.7186 351.181 42.8183C353.898 43.8492 356.267 45.5675 358.288 47.9731C360.378 50.3099 361.457 53.4715 361.527 57.4578C361.527 60.8255 360.552 63.8497 358.602 66.5301C356.72 69.1419 353.969 71.2038 350.345 72.7158C346.793 74.2279 342.647 74.9839 337.909 74.9839Z" fill="white"/>
<path fill-rule="evenodd" clip-rule="evenodd" d="M325.814 81.7448C326.532 82.0555 327.265 82.3436 328.012 82.609C311.282 95.5476 300.551 115.666 300.551 138.114C300.551 167.834 319.059 193.173 345.36 203.557L345.822 214.476C313.477 203.782 290.345 173.75 290.345 138.114C290.345 112.692 300.293 91.4876 318.29 77.2613C320.449 79.0141 322.957 80.5086 325.814 81.7448ZM384.99 217.642C423.816 211.516 453.631 178.396 453.631 138.114C453.631 130.563 452.356 123.012 450.442 116.09L443.107 124.27L442.15 125.214C442.788 129.304 443.425 133.709 443.425 138.114C443.425 172.564 418.31 201.125 385.426 207.335L384.99 217.642ZM371.988 67.6388C371.804 67.6388 371.619 67.6395 371.435 67.6409C371.761 66.2236 371.924 64.749 371.924 63.2169C371.888 61.1757 371.639 59.3088 371.176 57.6165C371.46 57.5864 371.731 57.5709 371.988 57.5709C379.642 57.5709 386.977 58.8294 394.312 60.7171L386.021 67.9534L385.064 68.8973C380.918 68.2681 376.453 67.6388 371.988 67.6388ZM379.323 98.7859L378.047 90.9207C378.047 90.4011 377.951 89.8815 377.864 89.4144L377.863 89.4125C377.793 89.0319 377.729 88.6861 377.729 88.4038L377.727 88.4035C375.814 88.089 373.901 87.7745 371.988 87.7745C343.605 87.7745 320.961 110.427 320.961 138.114C320.961 166.116 343.605 188.453 371.988 188.453C400.053 188.453 423.015 166.116 423.015 138.114C423.015 136.226 422.697 134.338 422.377 132.45C422.09 132.45 421.739 132.387 421.352 132.317C420.88 132.232 420.352 132.136 419.826 132.136L411.853 130.877C412.491 133.08 412.809 135.597 412.809 138.114C412.809 160.452 394.312 178.386 371.67 178.386C349.345 178.386 330.848 160.452 330.848 138.114C330.848 116.09 349.345 97.8423 371.67 97.8423C374.54 97.8423 377.091 98.1565 379.323 98.7859ZM401.387 118.962L376.058 143.678C373.186 146.825 368.399 146.825 365.527 143.678C362.335 140.845 362.335 136.123 365.527 132.975L391.173 107.678L388.253 89.3476C387.296 83.9991 389.209 78.9652 393.036 75.5043L408.664 61.661C413.129 57.8855 419.507 59.7733 421.101 65.1218L424.763 77.1625L427.12 82.9235L438.464 87.4386L445.977 89.6622C451.399 91.2354 453.312 97.5278 449.486 101.618L435.453 117.349C431.945 121.124 426.842 123.012 421.421 122.068L401.387 118.962Z" fill="#141414"/>
<path d="M7.87158 251.533C7.87158 245.622 8.98629 240.433 11.2156 235.966C13.5147 231.498 16.615 228.062 20.5164 225.656C24.4178 223.25 28.7722 222.047 33.5793 222.047C37.6898 222.047 41.2777 222.873 44.3431 224.522C47.4782 226.172 49.8818 228.336 51.5539 231.017V222.873H69.4239V280.4H51.5539V272.255C49.8122 274.935 47.3737 277.101 44.2387 278.75C41.1732 280.4 37.5852 281.224 33.4748 281.224C28.7374 281.224 24.4178 280.021 20.5164 277.616C16.615 275.141 13.5147 271.67 11.2156 267.203C8.98629 262.667 7.87158 257.444 7.87158 251.533ZM51.5539 251.636C51.5539 247.237 50.2998 243.766 47.7917 241.223C45.3534 238.68 42.3576 237.409 38.8045 237.409C35.2513 237.409 32.2208 238.68 29.7127 241.223C27.2743 243.698 26.0551 247.134 26.0551 251.533C26.0551 255.931 27.2743 259.437 29.7127 262.048C32.2208 264.591 35.2513 265.863 38.8045 265.863C42.3576 265.863 45.3534 264.591 47.7917 262.048C50.2998 259.505 51.5539 256.035 51.5539 251.636Z" fill="white"/>
<path d="M178.496 207.676V280.048H160.626V236.646L144.219 280.048H129.797L113.286 236.542V280.048H95.416V207.676H116.526L137.113 257.78L157.49 207.676H178.496ZM242.135 250.357C242.135 252.007 242.03 253.725 241.822 255.512H201.379C201.658 259.086 202.807 261.835 204.827 263.76C206.917 265.615 209.46 266.543 212.456 266.543C216.915 266.543 220.015 264.688 221.757 260.976H240.776C239.801 264.756 238.024 268.159 235.447 271.183C232.938 274.206 229.768 276.578 225.937 278.296C222.106 280.014 217.821 280.873 213.083 280.873C207.37 280.873 202.284 279.671 197.826 277.265C193.367 274.859 189.884 271.423 187.375 266.955C184.868 262.488 183.614 257.264 183.614 251.285C183.614 245.306 184.832 240.082 187.271 235.614C189.779 231.147 193.262 227.711 197.721 225.305C202.18 222.9 207.301 221.697 213.083 221.697C218.726 221.697 223.743 222.865 228.131 225.202C232.521 227.539 235.934 230.872 238.373 235.203C240.881 239.532 242.135 244.584 242.135 250.357ZM223.847 245.718C223.847 242.694 222.802 240.288 220.712 238.501C218.622 236.714 216.009 235.82 212.874 235.82C209.878 235.82 207.335 236.68 205.245 238.398C203.225 240.117 201.971 242.556 201.483 245.718H223.847ZM279.882 265.1V280.048H270.791C264.312 280.048 259.261 278.502 255.637 275.41C252.015 272.248 250.203 267.127 250.203 260.048V237.161H243.098V222.521H250.203V208.5H268.074V222.521H279.779V237.161H268.074V260.254C268.074 261.972 268.492 263.209 269.328 263.966C270.163 264.722 271.557 265.1 273.508 265.1H279.882ZM282.103 251.182C282.103 245.271 283.218 240.082 285.447 235.614C287.747 231.147 290.847 227.711 294.748 225.305C298.65 222.9 303.004 221.697 307.811 221.697C311.922 221.697 315.509 222.521 318.575 224.171C321.71 225.821 324.113 227.986 325.786 230.666V222.521H343.656V280.048H325.786V271.904C324.044 274.584 321.606 276.749 318.47 278.399C315.405 280.048 311.817 280.873 307.707 280.873C302.969 280.873 298.65 279.671 294.748 277.265C290.847 274.791 287.747 271.32 285.447 266.852C283.218 262.317 282.103 257.092 282.103 251.182ZM325.786 251.285C325.786 246.887 324.532 243.416 322.023 240.873C319.585 238.329 316.589 237.058 313.036 237.058C309.483 237.058 306.453 238.329 303.944 240.873C301.506 243.346 300.287 246.783 300.287 251.182C300.287 255.581 301.506 259.086 303.944 261.698C306.453 264.241 309.483 265.512 313.036 265.512C316.589 265.512 319.585 264.241 322.023 261.698C324.532 259.154 325.786 255.683 325.786 251.285ZM375.917 205.099L373.827 254.481H358.674L356.584 205.099H375.917ZM366.511 280.873C363.377 280.873 360.798 279.98 358.779 278.192C356.828 276.337 355.852 274.069 355.852 271.388C355.852 268.64 356.828 266.337 358.779 264.481C360.798 262.625 363.377 261.698 366.511 261.698C369.577 261.698 372.085 262.625 374.036 264.481C376.056 266.337 377.066 268.64 377.066 271.388C377.066 274.069 376.056 276.337 374.036 278.192C372.085 279.98 369.577 280.873 366.511 280.873Z" fill="#141414"/>
<path d="M51.3188 143.491C54.0766 143.921 56.5803 145.031 58.83 146.821C61.1523 148.61 62.9665 150.83 64.2729 153.479C65.6518 156.128 66.3412 158.956 66.3412 161.963C66.3412 165.757 65.3615 169.194 63.4021 172.273C61.4426 175.279 58.576 177.678 54.8023 179.467C51.1011 181.185 46.7106 182.045 41.6305 182.045H13.3276V107.193H40.542C45.6946 107.193 50.0851 108.053 53.7138 109.771C57.3423 111.417 60.0637 113.673 61.878 116.536C63.6923 119.4 64.5995 122.622 64.5995 126.201C64.5995 130.64 63.3658 134.328 60.8983 137.263C58.5034 140.127 55.3103 142.203 51.3188 143.491ZM23.2336 139.518H39.8888C44.5335 139.518 48.1257 138.444 50.6657 136.297C53.2057 134.149 54.4758 131.178 54.4758 127.383C54.4758 123.588 53.2057 120.618 50.6657 118.469C48.1257 116.322 44.4609 115.248 39.6711 115.248H23.2336V139.518ZM40.7597 173.99C45.6946 173.99 49.5408 172.845 52.2985 170.554C55.0563 168.263 56.4352 165.077 56.4352 160.997C56.4352 156.844 54.9838 153.587 52.0808 151.224C49.178 148.79 45.2955 147.573 40.4331 147.573H23.2336V173.99H40.7597ZM72.0323 152.405C72.0323 146.391 73.2661 141.129 75.7335 136.619C78.201 132.036 81.5755 128.492 85.8572 125.987C90.2115 123.481 95.0375 122.228 100.335 122.228C105.561 122.228 110.097 123.338 113.942 125.557C117.789 127.777 120.655 130.569 122.543 133.933V123.195H132.557V182.045H122.543V171.091C120.583 174.528 117.643 177.392 113.725 179.682C109.878 181.902 105.379 183.011 100.226 183.011C94.9286 183.011 90.139 181.722 85.8572 179.145C81.5755 176.568 78.201 172.953 75.7335 168.298C73.2661 163.645 72.0323 158.347 72.0323 152.405ZM122.543 152.512C122.543 148.073 121.635 144.207 119.82 140.914C118.006 137.621 115.539 135.115 112.418 133.397C109.371 131.607 105.996 130.712 102.295 130.712C98.5936 130.712 95.2189 131.571 92.1709 133.289C89.123 135.008 86.6918 137.514 84.8775 140.807C83.0632 144.1 82.1561 147.966 82.1561 152.405C82.1561 156.915 83.0632 160.853 84.8775 164.218C86.6918 167.511 89.123 170.053 92.1709 171.842C95.2189 173.561 98.5936 174.42 102.295 174.42C105.996 174.42 109.371 173.561 112.418 171.842C115.539 170.053 118.006 167.511 119.82 164.218C121.635 160.853 122.543 156.951 122.543 152.512ZM157.026 131.249V165.936C157.026 168.8 157.643 170.84 158.876 172.057C160.111 173.203 162.251 173.775 165.3 173.775H172.592V182.045H163.667C158.151 182.045 154.014 180.792 151.256 178.286C148.499 175.781 147.12 171.664 147.12 165.936V131.249H139.391V123.195H147.12V108.375H157.026V123.195H172.592V131.249H157.026ZM234.67 150.365C234.67 152.226 234.561 154.194 234.343 156.271H186.663C187.026 162.07 189.022 166.616 192.65 169.909C196.352 173.131 200.814 174.742 206.04 174.742C210.322 174.742 213.878 173.775 216.707 171.842C219.61 169.838 221.643 167.189 222.804 163.896H233.472C231.875 169.551 228.683 174.17 223.892 177.749C219.103 181.258 213.152 183.011 206.04 183.011C200.379 183.011 195.299 181.758 190.8 179.252C186.373 176.747 182.89 173.203 180.35 168.621C177.81 163.968 176.54 158.598 176.54 152.512C176.54 146.427 177.773 141.094 180.241 136.511C182.708 131.929 186.155 128.421 190.582 125.987C195.082 123.481 200.234 122.228 206.04 122.228C211.701 122.228 216.707 123.446 221.062 125.879C225.417 128.314 228.755 131.678 231.077 135.975C233.472 140.198 234.67 144.995 234.67 150.365ZM224.436 148.324C224.436 144.602 223.603 141.416 221.933 138.766C220.264 136.046 217.977 134.006 215.075 132.645C212.245 131.213 209.088 130.498 205.605 130.498C200.597 130.498 196.315 132.073 192.759 135.222C189.276 138.372 187.281 142.74 186.772 148.324H224.436ZM253.296 132.753C255.038 129.387 257.506 126.774 260.699 124.913C263.965 123.052 267.919 122.121 272.564 122.121V132.216H269.952C258.848 132.216 253.296 138.158 253.296 150.043V182.045H243.391V123.195H253.296V132.753Z" fill="#141414"/>
</svg>
