<svg width="147" height="91" viewBox="0 0 147 91" fill="none" xmlns="http://www.w3.org/2000/svg">
<g clip-path="url(#clip0_58_1321)">
<path d="M24.3966 0.576538L15.9712 23.9308H8.73007L0.304688 0.576538H6.463L12.3506 18.2087L18.2721 0.576538H24.3966ZM24.3109 14.6157C24.3109 12.7083 24.6718 11.0338 25.3937 9.59223C26.1381 8.15059 27.1419 7.04165 28.4052 6.26541C29.6684 5.48914 31.0783 5.10102 32.6348 5.10102C33.9658 5.10102 35.1274 5.36716 36.1199 5.89946C37.1351 6.43173 37.9133 7.13038 38.4546 7.99536V5.36716H44.2408V23.9308H38.4546V21.3026C37.8906 22.1676 37.1012 22.8662 36.0863 23.3985C35.0934 23.9308 33.9319 24.1969 32.6008 24.1969C31.067 24.1969 29.6684 23.8088 28.4052 23.0326C27.1419 22.2341 26.1381 21.1141 25.3937 19.6725C24.6718 18.2087 24.3109 16.5231 24.3109 14.6157ZM38.4546 14.649C38.4546 13.2296 38.0488 12.1095 37.2366 11.2889C36.4472 10.4683 35.4771 10.058 34.3267 10.058C33.176 10.058 32.1948 10.4683 31.3828 11.2889C30.5933 12.0873 30.1985 13.1963 30.1985 14.6157C30.1985 16.0352 30.5933 17.1663 31.3828 18.0091C32.1948 18.8297 33.176 19.24 34.3267 19.24C35.4771 19.24 36.4472 18.8297 37.2366 18.0091C38.0488 17.1885 38.4546 16.0684 38.4546 14.649ZM71.1651 5.16755C73.5114 5.16755 75.3721 5.86618 76.7483 7.26345C78.1468 8.66069 78.8463 10.6014 78.8463 13.0854V23.9308H73.0938V13.8506C73.0938 12.6529 72.7668 11.7325 72.1125 11.0893C71.4809 10.4239 70.6012 10.0913 69.4732 10.0913C68.3456 10.0913 67.4543 10.4239 66.8003 11.0893C66.1687 11.7325 65.853 12.6529 65.853 13.8506V23.9308H60.1004V13.8506C60.1004 12.6529 59.7734 11.7325 59.1191 11.0893C58.4876 10.4239 57.6078 10.0913 56.4799 10.0913C55.3522 10.0913 54.4609 10.4239 53.807 11.0893C53.1754 11.7325 52.8593 12.6529 52.8593 13.8506V23.9308H47.0735V5.36716H52.8593V7.69594C53.446 6.91967 54.2131 6.30975 55.1604 5.86618C56.1077 5.40044 57.1793 5.16755 58.3749 5.16755C59.7959 5.16755 61.0593 5.46697 62.1645 6.06578C63.2925 6.66461 64.1722 7.5185 64.8038 8.62744C65.4581 7.6072 66.349 6.77551 67.477 6.13231C68.605 5.48914 69.8341 5.16755 71.1651 5.16755ZM90.1339 24.1969C88.2841 24.1969 86.6149 23.8088 85.126 23.0326C83.6598 22.2563 82.4982 21.1474 81.6409 19.7058C80.8063 18.2641 80.389 16.5785 80.389 14.649C80.389 12.7416 80.8175 11.0671 81.6748 9.62548C82.5319 8.16167 83.705 7.04165 85.1939 6.26541C86.6824 5.48914 88.352 5.10102 90.2015 5.10102C92.0513 5.10102 93.7205 5.48914 95.2094 6.26541C96.6983 7.04165 97.8714 8.16167 98.7284 9.62548C99.5858 11.0671 100.014 12.7416 100.014 14.649C100.014 16.5563 99.5746 18.242 98.6948 19.7058C97.8375 21.1474 96.6531 22.2563 95.1418 23.0326C93.6529 23.8088 91.9837 24.1969 90.1339 24.1969ZM90.1339 19.2733C91.2391 19.2733 92.1756 18.874 92.9423 18.0756C93.732 17.2772 94.1266 16.135 94.1266 14.649C94.1266 13.163 93.7432 12.0208 92.9762 11.2224C92.2319 10.4239 91.307 10.0247 90.2015 10.0247C89.0738 10.0247 88.1377 10.4239 87.3931 11.2224C86.6488 11.9986 86.2767 13.1408 86.2767 14.649C86.2767 16.135 86.6376 17.2772 87.3591 18.0756C88.1038 18.874 89.0287 19.2733 90.1339 19.2733ZM109.411 24.1969C107.765 24.1969 106.298 23.9197 105.013 23.3653C103.727 22.8108 102.712 22.0567 101.967 21.103C101.223 20.1271 100.806 19.0404 100.715 17.8427H106.434C106.502 18.4859 106.806 19.0071 107.347 19.4063C107.889 19.8055 108.554 20.0051 109.344 20.0051C110.066 20.0051 110.618 19.8721 111.002 19.6059C111.408 19.3176 111.611 18.9517 111.611 18.5081C111.611 17.9758 111.329 17.5877 110.765 17.3437C110.201 17.0776 109.287 16.7892 108.024 16.4787C106.671 16.1682 105.543 15.8466 104.64 15.514C103.738 15.1591 102.96 14.6157 102.306 13.8838C101.651 13.1297 101.324 12.1206 101.324 10.8564C101.324 9.79183 101.618 8.82704 102.204 7.96207C102.813 7.07493 103.693 6.37628 104.844 5.86618C106.017 5.35607 107.404 5.10102 109.005 5.10102C111.374 5.10102 113.235 5.67766 114.588 6.83096C115.965 7.98427 116.754 9.51458 116.957 11.422H111.611C111.521 10.7788 111.227 10.2687 110.731 9.89162C110.257 9.51458 109.626 9.32607 108.836 9.32607C108.159 9.32607 107.641 9.45913 107.28 9.7253C106.919 9.96927 106.738 10.313 106.738 10.7566C106.738 11.2889 107.02 11.6881 107.584 11.9543C108.171 12.2204 109.073 12.4865 110.291 12.7527C111.69 13.1076 112.829 13.4624 113.709 13.8173C114.588 14.1499 115.355 14.7044 116.01 15.4807C116.686 16.2348 117.036 17.255 117.059 18.5414C117.059 19.6281 116.743 20.604 116.111 21.469C115.502 22.3118 114.611 22.9771 113.438 23.465C112.288 23.953 110.945 24.1969 109.411 24.1969Z" fill="white"/>
<path fill-rule="evenodd" clip-rule="evenodd" d="M105.495 26.3786C105.728 26.4789 105.965 26.5719 106.207 26.6575C100.79 30.8327 97.3152 37.3248 97.3152 44.5686C97.3152 54.1592 103.308 62.3359 111.824 65.6869L111.974 69.2104C101.501 65.7593 94.0107 56.0683 94.0107 44.5686C94.0107 36.365 97.2316 29.5226 103.059 24.9318C103.758 25.4974 104.57 25.9797 105.495 26.3786ZM124.656 70.2318C137.227 68.255 146.881 57.5674 146.881 44.5686C146.881 42.1321 146.468 39.6952 145.848 37.4618L143.473 40.1014L143.164 40.4059C143.37 41.7259 143.576 43.1472 143.576 44.5686C143.576 55.6854 135.444 64.9019 124.797 66.9061L124.656 70.2318ZM120.446 21.8267C120.386 21.8267 120.326 21.8269 120.267 21.8274C120.372 21.37 120.425 20.8942 120.425 20.3998C120.413 19.7411 120.333 19.1386 120.183 18.5926C120.275 18.5829 120.362 18.5779 120.446 18.5779C122.924 18.5779 125.299 18.9839 127.674 19.5931L124.989 21.9282L124.68 22.2328C123.337 22.0298 121.891 21.8267 120.446 21.8267ZM122.821 31.8777L122.408 29.3397C122.408 29.172 122.377 29.0043 122.348 28.8536L122.348 28.853C122.325 28.7301 122.305 28.6186 122.305 28.5275L122.304 28.5274C121.685 28.4259 121.065 28.3244 120.446 28.3244C111.256 28.3244 103.924 35.6342 103.924 44.5686C103.924 53.6047 111.256 60.8129 120.446 60.8129C129.533 60.8129 136.968 53.6047 136.968 44.5686C136.968 43.9596 136.865 43.3503 136.761 42.741C136.668 42.741 136.555 42.7206 136.429 42.6979C136.276 42.6705 136.106 42.6396 135.935 42.6396L133.354 42.2334C133.56 42.9441 133.663 43.7565 133.663 44.5686C133.663 51.7771 127.674 57.5643 120.343 57.5643C113.114 57.5643 107.125 51.7771 107.125 44.5686C107.125 37.4618 113.114 31.5732 120.343 31.5732C121.272 31.5732 122.098 31.6746 122.821 31.8777ZM129.965 38.3885L121.764 46.364C120.834 47.3798 119.284 47.3798 118.354 46.364C117.32 45.4499 117.32 43.9262 118.354 42.9104L126.658 34.7472L125.712 28.832C125.402 27.1061 126.022 25.4817 127.261 24.3649L132.321 19.8977C133.767 18.6794 135.832 19.2885 136.348 21.0145L137.534 24.9L138.297 26.759L141.97 28.216L144.403 28.9336C146.158 29.4412 146.778 31.4717 145.539 32.7915L140.995 37.868C139.859 39.0862 138.207 39.6952 136.451 39.3907L129.965 38.3885Z" fill="#141414"/>
<path d="M2.54883 81.1685C2.54883 79.261 2.90976 77.5864 3.6316 76.1449C4.37601 74.7031 5.37984 73.5944 6.64308 72.8179C7.90632 72.0417 9.31621 71.6535 10.8727 71.6535C12.2036 71.6535 13.3653 71.9199 14.3579 72.452C15.373 72.9845 16.1513 73.6829 16.6927 74.5479V71.9199H22.4788V90.4836H16.6927V87.8553C16.1287 88.7203 15.3392 89.419 14.3241 89.9511C13.3315 90.4836 12.1698 90.7496 10.8389 90.7496C9.30493 90.7496 7.90632 90.3614 6.64308 89.5852C5.37984 88.7867 4.37601 87.6667 3.6316 86.2252C2.90976 84.7613 2.54883 83.0757 2.54883 81.1685ZM16.6927 81.2016C16.6927 79.7821 16.2866 78.6621 15.4745 77.8415C14.685 77.0209 13.715 76.6106 12.5646 76.6106C11.4141 76.6106 10.4328 77.0209 9.62074 77.8415C8.8312 78.64 8.43645 79.749 8.43645 81.1685C8.43645 82.5877 8.8312 83.719 9.62074 84.5617C10.4328 85.3822 11.4141 85.7925 12.5646 85.7925C13.715 85.7925 14.685 85.3822 15.4745 84.5617C16.2866 83.7411 16.6927 82.621 16.6927 81.2016Z" fill="white"/>
<path d="M57.7949 67.016V90.3702H52.0087V76.3644L46.6962 90.3702H42.0268L36.6807 76.331V90.3702H30.8945V67.016H37.7295L44.3955 83.1844L50.9935 67.016H57.7949ZM78.4005 80.7891C78.4005 81.3212 78.3666 81.8757 78.299 82.4523H65.2041C65.2945 83.6057 65.6666 84.4927 66.3206 85.114C66.9973 85.7125 67.8207 86.012 68.7907 86.012C70.2345 86.012 71.2382 85.4134 71.8022 84.2156H77.9605C77.6447 85.4355 77.0695 86.5334 76.2349 87.5092C75.4227 88.4851 74.3963 89.2502 73.1556 89.8047C71.9152 90.3592 70.5278 90.6363 68.9938 90.6363C67.144 90.6363 65.4972 90.2484 64.0538 89.4719C62.61 88.6957 61.4821 87.5867 60.6699 86.1452C59.858 84.7037 59.4519 83.0178 59.4519 81.0886C59.4519 79.159 59.8465 77.4731 60.6362 76.0316C61.4481 74.5901 62.5761 73.4811 64.0198 72.7049C65.4636 71.9287 67.1215 71.5405 68.9938 71.5405C70.8209 71.5405 72.4453 71.9174 73.8663 72.6715C75.2876 73.4257 76.3928 74.5013 77.1822 75.8987C77.9944 77.2958 78.4005 78.926 78.4005 80.7891ZM72.4789 79.2919C72.4789 78.316 72.1407 77.5399 71.464 76.963C70.7873 76.3865 69.9411 76.098 68.9262 76.098C67.9561 76.098 67.1328 76.3754 66.456 76.9299C65.8017 77.4844 65.396 78.2716 65.2378 79.2919H72.4789ZM90.6226 85.5463V90.3702H87.6788C85.5811 90.3702 83.9455 89.8712 82.7724 88.8733C81.5996 87.8531 81.0129 86.2006 81.0129 83.9162V76.5307H78.7121V71.8065H81.0129V67.2821H86.799V71.8065H90.589V76.5307H86.799V83.9826C86.799 84.5371 86.9345 84.9364 87.2051 85.1804C87.4758 85.4244 87.927 85.5463 88.5586 85.5463H90.6226ZM91.3416 81.0552C91.3416 79.1476 91.7026 77.4731 92.4244 76.0316C93.169 74.5901 94.1727 73.4811 95.4359 72.7049C96.6993 71.9287 98.1091 71.5405 99.6655 71.5405C100.997 71.5405 102.158 71.8065 103.151 72.339C104.166 72.8712 104.944 73.5699 105.486 74.4348V71.8065H111.272V90.3702H105.486V87.7419C104.922 88.6069 104.132 89.3056 103.117 89.8381C102.125 90.3702 100.963 90.6363 99.6319 90.6363C98.0979 90.6363 96.6993 90.2484 95.4359 89.4719C94.1727 88.6737 93.169 87.5536 92.4244 86.1118C91.7026 84.6483 91.3416 82.9624 91.3416 81.0552ZM105.486 81.0886C105.486 79.6691 105.08 78.5491 104.267 77.7285C103.478 76.9076 102.508 76.4973 101.357 76.4973C100.207 76.4973 99.2258 76.9076 98.4136 77.7285C97.6242 78.5267 97.2293 79.6357 97.2293 81.0552C97.2293 82.4746 97.6242 83.6057 98.4136 84.4486C99.2258 85.2692 100.207 85.6795 101.357 85.6795C102.508 85.6795 103.478 85.2692 104.267 84.4486C105.08 83.6277 105.486 82.5077 105.486 81.0886ZM121.717 66.1844L121.041 82.1198H116.134L115.458 66.1844H121.717ZM118.672 90.6363C117.657 90.6363 116.822 90.3482 116.168 89.7713C115.537 89.1724 115.221 88.4407 115.221 87.5757C115.221 86.6887 115.537 85.9456 116.168 85.3467C116.822 84.7478 117.657 84.4486 118.672 84.4486C119.665 84.4486 120.477 84.7478 121.108 85.3467C121.763 85.9456 122.09 86.6887 122.09 87.5757C122.09 88.4407 121.763 89.1724 121.108 89.7713C120.477 90.3482 119.665 90.6363 118.672 90.6363Z" fill="#141414"/>
<path d="M16.6165 46.3039C17.5095 46.4427 18.3201 46.8008 19.0486 47.3782C19.8005 47.9557 20.3879 48.6721 20.8109 49.527C21.2574 50.3816 21.4806 51.2944 21.4806 52.2645C21.4806 53.4891 21.1634 54.5981 20.529 55.5915C19.8945 56.5617 18.9663 57.3357 17.7444 57.9131C16.5461 58.4677 15.1244 58.7451 13.4796 58.7451H4.31543V34.5907H13.1271C14.7955 34.5907 16.2171 34.8681 17.392 35.4226C18.5669 35.9538 19.448 36.6818 20.0355 37.6057C20.6229 38.5298 20.9167 39.5696 20.9167 40.7245C20.9167 42.1569 20.5172 43.3469 19.7183 44.294C18.9428 45.2182 17.9089 45.8882 16.6165 46.3039ZM7.52288 45.0217H12.9156C14.4195 45.0217 15.5826 44.6753 16.4051 43.9823C17.2275 43.2892 17.6387 42.3304 17.6387 41.1059C17.6387 39.8813 17.2275 38.9228 16.4051 38.2294C15.5826 37.5364 14.396 37.19 12.8451 37.19H7.52288V45.0217ZM13.1976 56.1457C14.7955 56.1457 16.0408 55.7761 16.9338 55.037C17.8267 54.2977 18.2732 53.2696 18.2732 51.9528C18.2732 50.6127 17.8032 49.5616 16.8633 48.7993C15.9234 48.0137 14.6662 47.621 13.0919 47.621H7.52288V56.1457H13.1976ZM23.3233 49.1803C23.3233 47.2397 23.7228 45.5416 24.5217 44.0862C25.3207 42.6075 26.4133 41.4639 27.7997 40.6553C29.2095 39.8467 30.7722 39.4424 32.4875 39.4424C34.1794 39.4424 35.6481 39.8007 36.8933 40.5167C38.1388 41.2331 39.0669 42.1339 39.678 43.2196V39.7544H42.9206V58.7451H39.678V55.2102C39.0435 56.3192 38.0917 57.2434 36.8228 57.9824C35.5773 58.6988 34.1205 59.0568 32.4522 59.0568C30.7369 59.0568 29.1861 58.6408 27.7997 57.8092C26.4133 56.9776 25.3207 55.811 24.5217 54.309C23.7228 52.8074 23.3233 51.0979 23.3233 49.1803ZM39.678 49.2149C39.678 47.7826 39.384 46.535 38.7966 45.4723C38.2092 44.4096 37.4102 43.601 36.3998 43.0465C35.413 42.469 34.3203 42.1802 33.1219 42.1802C31.9236 42.1802 30.8309 42.4573 29.844 43.0118C28.8571 43.5663 28.0699 44.3749 27.4825 45.4376C26.895 46.5004 26.6013 47.7479 26.6013 49.1803C26.6013 50.6357 26.895 51.9065 27.4825 52.9922C28.0699 54.0549 28.8571 54.8752 29.844 55.4527C30.8309 56.0072 31.9236 56.2846 33.1219 56.2846C34.3203 56.2846 35.413 56.0072 36.3998 55.4527C37.4102 54.8752 38.2092 54.0549 38.7966 52.9922C39.384 51.9065 39.678 50.6473 39.678 49.2149ZM50.8432 42.3534V53.5467C50.8432 54.4709 51.0431 55.1293 51.4424 55.522C51.8421 55.8916 52.5352 56.0765 53.5222 56.0765H55.8835V58.7451H52.9935C51.2077 58.7451 49.868 58.3408 48.9752 57.5321C48.0823 56.7235 47.6358 55.3951 47.6358 53.5467V42.3534H45.1333V39.7544H47.6358V34.972H50.8432V39.7544H55.8835V42.3534H50.8432ZM75.9834 48.5219C75.9834 49.1227 75.9482 49.7578 75.8778 50.4278H60.4395C60.5571 52.2992 61.2034 53.7662 62.3781 54.8289C63.5765 55.8686 65.0215 56.3885 66.7135 56.3885C68.0999 56.3885 69.2512 56.0765 70.1675 55.4527C71.1075 54.8059 71.7656 53.951 72.1416 52.8883H75.5956C75.0787 54.7134 74.0449 56.2037 72.4939 57.3586C70.9432 58.491 69.0162 59.0568 66.7135 59.0568C64.8806 59.0568 63.2358 58.6525 61.7789 57.8439C60.3454 57.0353 59.2178 55.8916 58.3953 54.4133C57.5729 52.9116 57.1617 51.1788 57.1617 49.2149C57.1617 47.2514 57.561 45.5302 58.3601 44.0515C59.1588 42.5729 60.2749 41.4409 61.7084 40.6553C63.1653 39.8467 64.8335 39.4424 66.7135 39.4424C68.5463 39.4424 70.1675 39.8353 71.5776 40.6206C72.9874 41.4063 74.0683 42.492 74.8203 43.8784C75.5956 45.2412 75.9834 46.7891 75.9834 48.5219ZM72.67 47.8635C72.67 46.6622 72.4 45.6341 71.8594 44.7792C71.3192 43.9014 70.5787 43.2429 69.6391 42.804C68.7225 42.3418 67.7005 42.111 66.5726 42.111C64.9511 42.111 63.5647 42.6192 62.4133 43.6356C61.2854 44.652 60.6394 46.0614 60.4748 47.8635H72.67ZM82.0146 42.8386C82.5786 41.7526 83.3776 40.9094 84.4114 40.3089C85.4689 39.7081 86.7494 39.4077 88.2533 39.4077V42.6655H87.4075C83.8122 42.6655 82.0146 44.5828 82.0146 48.418V58.7451H78.8072V39.7544H82.0146V42.8386Z" fill="#141414"/>
</g>
<defs>
<clipPath id="clip0_58_1321">
<rect width="147" height="91" fill="white"/>
</clipPath>
</defs>
</svg>
