<svg width="332" height="206" viewBox="0 0 332 206" fill="none" xmlns="http://www.w3.org/2000/svg">
<path d="M55.0995 1.30511L36.0708 54.173H19.7167L0.687988 1.30511H14.5966L27.8938 41.2196L41.2674 1.30511H55.0995ZM54.9061 33.0861C54.9061 28.7683 55.7212 24.9777 57.3516 21.7143C59.0328 18.4508 61.3 15.9404 64.153 14.1832C67.0061 12.426 70.1902 11.5473 73.7057 11.5473C76.7117 11.5473 79.3352 12.1498 81.5767 13.3548C83.8696 14.5597 85.6273 16.1413 86.8497 18.0994V12.1498H99.9177V54.173H86.8497V48.2235C85.5759 50.1815 83.793 51.7631 81.5008 52.968C79.2585 54.173 76.6351 54.7755 73.629 54.7755C70.1647 54.7755 67.0061 53.8969 64.153 52.1396C61.3 50.3322 59.0328 47.7967 57.3516 44.5333C55.7212 41.2196 54.9061 37.4039 54.9061 33.0861ZM86.8497 33.1615C86.8497 29.9482 85.9332 27.4127 84.0989 25.5551C82.3159 23.6974 80.125 22.7686 77.5269 22.7686C74.928 22.7686 72.7118 23.6974 70.878 25.5551C69.0949 27.3625 68.2033 29.8729 68.2033 33.0861C68.2033 36.2994 69.0949 38.8599 70.878 40.7678C72.7118 42.6254 74.928 43.5543 77.5269 43.5543C80.125 43.5543 82.3159 42.6254 84.0989 40.7678C85.9332 38.9101 86.8497 36.3747 86.8497 33.1615ZM160.727 11.698C166.026 11.698 170.228 13.2795 173.336 16.4425C176.495 19.6055 178.074 23.9987 178.074 29.6218V54.173H165.082V31.354C165.082 28.6428 164.344 26.5592 162.866 25.1032C161.44 23.597 159.453 22.8439 156.905 22.8439C154.359 22.8439 152.346 23.597 150.869 25.1032C149.442 26.5592 148.729 28.6428 148.729 31.354V54.173H135.737V31.354C135.737 28.6428 134.998 26.5592 133.521 25.1032C132.094 23.597 130.107 22.8439 127.56 22.8439C125.013 22.8439 123 23.597 121.523 25.1032C120.097 26.5592 119.383 28.6428 119.383 31.354V54.173H106.315V12.1498H119.383V17.4216C120.708 15.6643 122.44 14.2836 124.58 13.2795C126.719 12.2252 129.14 11.698 131.84 11.698C135.049 11.698 137.902 12.3758 140.399 13.7313C142.946 15.0869 144.933 17.0199 146.359 19.5302C147.837 17.2207 149.849 15.338 152.397 13.8819C154.944 12.4259 157.72 11.698 160.727 11.698ZM203.568 54.7755C199.39 54.7755 195.62 53.8969 192.257 52.1396C188.946 50.3824 186.322 47.8721 184.386 44.6086C182.501 41.3451 181.559 37.5294 181.559 33.1615C181.559 28.8436 182.526 25.053 184.463 21.7895C186.398 18.4759 189.048 15.9404 192.41 14.1832C195.772 12.426 199.543 11.5473 203.72 11.5473C207.898 11.5473 211.668 12.426 215.031 14.1832C218.393 15.9404 221.043 18.4759 222.978 21.7895C224.915 25.053 225.882 28.8436 225.882 33.1615C225.882 37.4792 224.889 41.295 222.902 44.6086C220.966 47.8721 218.291 50.3824 214.878 52.1396C211.515 53.8969 207.745 54.7755 203.568 54.7755ZM203.568 43.6296C206.064 43.6296 208.179 42.7258 209.91 40.9184C211.694 39.1109 212.585 36.5253 212.585 33.1615C212.585 29.7975 211.719 27.2119 209.987 25.4044C208.306 23.597 206.217 22.6933 203.72 22.6933C201.173 22.6933 199.059 23.597 197.377 25.4044C195.696 27.1617 194.856 29.7473 194.856 33.1615C194.856 36.5253 195.671 39.1109 197.301 40.9184C198.982 42.7258 201.071 43.6296 203.568 43.6296ZM247.106 54.7755C243.387 54.7755 240.075 54.1479 237.171 52.8928C234.267 51.6376 231.975 49.9306 230.293 47.7716C228.612 45.5625 227.67 43.1024 227.466 40.3912H240.381C240.534 41.8472 241.222 43.0271 242.444 43.9308C243.667 44.8345 245.17 45.2864 246.953 45.2864C248.584 45.2864 249.831 44.9851 250.698 44.3827C251.615 43.73 252.074 42.9015 252.074 41.8974C252.074 40.6924 251.436 39.8138 250.163 39.2616C248.889 38.6591 246.826 38.0064 243.972 37.3035C240.916 36.6006 238.368 35.8726 236.331 35.1195C234.292 34.3162 232.535 33.0861 231.058 31.4293C229.58 29.7222 228.842 27.4379 228.842 24.576C228.842 22.1661 229.504 19.9821 230.828 18.024C232.204 16.0158 234.191 14.4342 236.789 13.2795C239.439 12.1247 242.571 11.5473 246.189 11.5473C251.538 11.5473 255.741 12.8527 258.798 15.4635C261.906 18.0743 263.689 21.5385 264.148 25.8563H252.074C251.87 24.4003 251.207 23.2456 250.087 22.392C249.016 21.5385 247.59 21.1117 245.807 21.1117C244.278 21.1117 243.107 21.413 242.291 22.0155C241.476 22.5678 241.068 23.3459 241.068 24.3501C241.068 25.5551 241.706 26.4588 242.979 27.0613C244.304 27.6637 246.342 28.2662 249.093 28.8687C252.251 29.6721 254.824 30.4753 256.811 31.2787C258.798 32.0317 260.531 33.2869 262.008 35.0442C263.537 36.7512 264.326 39.0608 264.377 41.9728C264.377 44.4329 263.664 46.642 262.238 48.6001C260.862 50.5079 258.85 52.0142 256.2 53.1186C253.602 54.2232 250.571 54.7755 247.106 54.7755Z" fill="white"/>
<path fill-rule="evenodd" clip-rule="evenodd" d="M238.26 59.7143C238.786 59.9412 239.322 60.1517 239.868 60.3456C227.634 69.7971 219.786 84.4935 219.786 100.892C219.786 122.602 233.321 141.112 252.555 148.698L252.892 156.674C229.239 148.862 212.323 126.924 212.323 100.892C212.323 82.3209 219.598 66.8314 232.759 56.4391C234.337 57.7195 236.172 58.8112 238.26 59.7143ZM281.535 158.986C309.928 154.511 331.73 130.317 331.73 100.892C331.73 95.3759 330.798 89.8595 329.398 84.8036L324.034 90.779L323.335 91.4683C323.801 94.4563 324.267 97.6739 324.267 100.892C324.267 126.057 305.901 146.921 281.854 151.458L281.535 158.986ZM272.027 49.4099C271.892 49.4099 271.757 49.4104 271.622 49.4114C271.86 48.3761 271.98 47.2989 271.98 46.1797C271.954 44.6886 271.771 43.3249 271.433 42.0886C271.641 42.0667 271.839 42.0554 272.027 42.0554C277.624 42.0554 282.988 42.9747 288.352 44.3536L282.288 49.6397L281.589 50.3292C278.557 49.8696 275.292 49.4099 272.027 49.4099ZM277.391 72.1627L276.458 66.4172C276.458 66.0377 276.388 65.6581 276.324 65.3169L276.323 65.3155C276.272 65.0375 276.225 64.7849 276.225 64.5786L276.223 64.5784C274.825 64.3487 273.426 64.119 272.027 64.119C251.271 64.119 234.712 80.6665 234.712 100.892C234.712 121.347 251.271 137.664 272.027 137.664C292.55 137.664 309.342 121.347 309.342 100.892C309.342 99.513 309.109 98.1337 308.875 96.7544C308.665 96.7544 308.409 96.7081 308.126 96.6568C307.78 96.5947 307.395 96.5249 307.01 96.5249L301.179 95.6054C301.646 97.2142 301.879 99.0532 301.879 100.892C301.879 117.21 288.352 130.31 271.794 130.31C255.469 130.31 241.942 117.21 241.942 100.892C241.942 84.8036 255.469 71.4734 271.794 71.4734C273.893 71.4734 275.758 71.703 277.391 72.1627ZM293.526 86.9013L275.003 104.956C272.903 107.255 269.402 107.255 267.302 104.956C264.968 102.887 264.968 99.4374 267.302 97.1379L286.056 78.6585L283.921 65.2681C283.222 61.361 284.62 57.6838 287.419 55.1556L298.847 45.0431C302.112 42.2852 306.776 43.6642 307.942 47.5712L310.62 56.3669L312.343 60.5753L320.639 63.8736L326.133 65.4979C330.098 66.6471 331.498 71.2437 328.699 74.2313L318.437 85.7231C315.872 88.4809 312.14 89.8595 308.176 89.1702L293.526 86.9013Z" fill="#141414"/>
<path d="M5.75635 183.744C5.75635 179.426 6.57151 175.635 8.20178 172.372C9.88305 169.108 12.1502 166.598 15.0032 164.841C17.8563 163.084 21.0405 162.205 24.5559 162.205C27.5617 162.205 30.1855 162.808 32.4272 164.012C34.7198 165.218 36.4775 166.799 37.7002 168.757V162.808H50.7682V204.831H37.7002V198.881C36.4266 200.839 34.6434 202.421 32.3508 203.626C30.1091 204.831 27.4853 205.433 24.4794 205.433C21.015 205.433 17.8563 204.554 15.0032 202.797C12.1502 200.99 9.88305 198.454 8.20178 195.191C6.57151 191.877 5.75635 188.062 5.75635 183.744ZM37.7002 183.819C37.7002 180.606 36.7832 178.07 34.9491 176.213C33.1659 174.355 30.9752 173.426 28.3769 173.426C25.7785 173.426 23.5624 174.355 21.7283 176.213C19.9451 178.02 19.0536 180.531 19.0536 183.744C19.0536 186.957 19.9451 189.518 21.7283 191.425C23.5624 193.283 25.7785 194.212 28.3769 194.212C30.9752 194.212 33.1659 193.283 34.9491 191.425C36.7832 189.568 37.7002 187.032 37.7002 183.819Z" fill="white"/>
<path d="M130.53 151.707V204.574H117.462V172.869L105.464 204.574H94.9182L82.8439 172.793V204.574H69.7759V151.707H85.2128L100.268 188.308L115.169 151.707H130.53ZM177.068 182.885C177.068 184.09 176.992 185.345 176.839 186.65H147.264C147.468 189.261 148.309 191.269 149.786 192.676C151.314 194.031 153.174 194.709 155.365 194.709C158.625 194.709 160.892 193.353 162.166 190.642H176.074C175.361 193.403 174.062 195.889 172.177 198.098C170.343 200.307 168.025 202.039 165.223 203.294C162.421 204.549 159.288 205.177 155.823 205.177C151.645 205.177 147.926 204.299 144.666 202.541C141.405 200.784 138.858 198.273 137.024 195.01C135.19 191.747 134.273 187.93 134.273 183.563C134.273 179.195 135.164 175.379 136.948 172.116C138.781 168.852 141.329 166.342 144.589 164.585C147.85 162.828 151.595 161.949 155.823 161.949C159.95 161.949 163.618 162.802 166.828 164.509C170.038 166.216 172.534 168.651 174.317 171.815C176.151 174.977 177.068 178.668 177.068 182.885ZM163.694 179.496C163.694 177.287 162.93 175.53 161.402 174.224C159.874 172.919 157.963 172.266 155.671 172.266C153.48 172.266 151.62 172.894 150.092 174.149C148.614 175.404 147.698 177.186 147.34 179.496H163.694ZM204.672 193.654V204.574H198.023C193.286 204.574 189.592 203.445 186.942 201.186C184.293 198.876 182.968 195.135 182.968 189.964V173.245H177.772V162.551H182.968V152.309H196.036V162.551H204.596V173.245H196.036V190.114C196.036 191.37 196.342 192.274 196.954 192.826C197.565 193.378 198.584 193.654 200.01 193.654H204.672ZM206.296 183.488C206.296 179.169 207.111 175.379 208.741 172.116C210.423 168.852 212.69 166.342 215.543 164.585C218.396 162.828 221.58 161.949 225.095 161.949C228.102 161.949 230.725 162.551 232.967 163.756C235.259 164.961 237.017 166.543 238.24 168.501V162.551H251.308V204.574H238.24V198.625C236.966 200.583 235.183 202.164 232.891 203.37C230.649 204.574 228.025 205.177 225.02 205.177C221.555 205.177 218.396 204.299 215.543 202.541C212.69 200.734 210.423 198.198 208.741 194.934C207.111 191.621 206.296 187.805 206.296 183.488ZM238.24 183.563C238.24 180.35 237.323 177.814 235.489 175.957C233.706 174.099 231.515 173.17 228.917 173.17C226.319 173.17 224.102 174.099 222.268 175.957C220.485 177.764 219.593 180.274 219.593 183.488C219.593 186.701 220.485 189.261 222.268 191.169C224.102 193.027 226.319 193.956 228.917 193.956C231.515 193.956 233.706 193.027 235.489 191.169C237.323 189.311 238.24 186.776 238.24 183.563ZM274.9 149.824L273.371 185.898H262.29L260.762 149.824H274.9ZM268.022 205.177C265.73 205.177 263.844 204.525 262.367 203.219C260.941 201.863 260.227 200.206 260.227 198.248C260.227 196.24 260.941 194.558 262.367 193.202C263.844 191.847 265.73 191.169 268.022 191.169C270.263 191.169 272.098 191.847 273.524 193.202C275.002 194.558 275.74 196.24 275.74 198.248C275.74 200.206 275.002 201.863 273.524 203.219C272.098 204.525 270.263 205.177 268.022 205.177Z" fill="#141414"/>
<path d="M37.5282 104.82C39.5449 105.134 41.3758 105.945 43.021 107.252C44.7192 108.559 46.0459 110.181 47.0012 112.116C48.0096 114.051 48.5137 116.117 48.5137 118.313C48.5137 121.085 47.7973 123.596 46.3644 125.845C44.9315 128.041 42.8352 129.793 40.0756 131.1C37.369 132.355 34.1583 132.983 30.4434 132.983H9.74609V78.3043H29.6474C33.4153 78.3043 36.626 78.9322 39.2796 80.1875C41.933 81.39 43.9231 83.038 45.2499 85.1294C46.5766 87.2214 47.24 89.5751 47.24 92.1897C47.24 95.4322 46.3378 98.1259 44.5335 100.27C42.7821 102.362 40.4471 103.879 37.5282 104.82ZM16.9901 101.917H29.1697C32.5662 101.917 35.1931 101.133 37.0506 99.5643C38.9081 97.9954 39.8368 95.825 39.8368 93.0529C39.8368 90.2808 38.9081 88.111 37.0506 86.5414C35.1931 84.9725 32.5131 84.1885 29.0105 84.1885H16.9901V101.917ZM29.8066 127.099C33.4153 127.099 36.228 126.262 38.2446 124.589C40.2613 122.916 41.2697 120.588 41.2697 117.607C41.2697 114.574 40.2083 112.194 38.0854 110.469C35.9627 108.69 33.1234 107.801 29.5677 107.801H16.9901V127.099H29.8066ZM52.6755 111.331C52.6755 106.938 53.5778 103.094 55.3821 99.7995C57.1865 96.4522 59.6542 93.8633 62.7854 92.0328C65.9695 90.2024 69.4987 89.2871 73.3727 89.2871C77.194 89.2871 80.5111 90.0983 83.3233 91.7192C86.1363 93.3408 88.2324 95.3802 89.6125 97.8379V89.9935H96.936V132.983H89.6125V124.981C88.1796 127.492 86.0299 129.584 83.1642 131.257C80.3512 132.879 77.0609 133.689 73.2931 133.689C69.4191 133.689 65.9165 132.747 62.7854 130.865C59.6542 128.982 57.1865 126.341 55.3821 122.941C53.5778 119.542 52.6755 115.672 52.6755 111.331ZM89.6125 111.41C89.6125 108.167 88.9485 105.343 87.6219 102.937C86.2954 100.532 84.4907 98.7011 82.2087 97.4459C79.9801 96.1386 77.5122 95.4849 74.8056 95.4849C72.0992 95.4849 69.6314 96.1122 67.4024 97.3675C65.1735 98.6227 63.3956 100.453 62.0689 102.859C60.7422 105.265 60.0788 108.089 60.0788 111.331C60.0788 114.626 60.7422 117.503 62.0689 119.96C63.3956 122.366 65.1735 124.223 67.4024 125.53C69.6314 126.786 72.0992 127.414 74.8056 127.414C77.5122 127.414 79.9801 126.786 82.2087 125.53C84.4907 124.223 86.2954 122.366 87.6219 119.96C88.9485 117.503 89.6125 114.652 89.6125 111.41ZM114.829 95.877V121.216C114.829 123.308 115.281 124.798 116.183 125.687C117.085 126.524 118.651 126.942 120.88 126.942H126.213V132.983H119.686C115.652 132.983 112.627 132.068 110.61 130.238C108.594 128.407 107.585 125.4 107.585 121.216V95.877H101.933V89.9935H107.585V79.1675H114.829V89.9935H126.213V95.877H114.829ZM171.609 109.841C171.609 111.201 171.529 112.639 171.37 114.155H136.503C136.768 118.392 138.228 121.713 140.881 124.118C143.587 126.472 146.851 127.649 150.672 127.649C153.803 127.649 156.404 126.942 158.473 125.53C160.596 124.066 162.083 122.131 162.932 119.725H170.733C169.565 123.857 167.23 127.23 163.727 129.845C160.225 132.408 155.873 133.689 150.672 133.689C146.533 133.689 142.818 132.774 139.527 130.943C136.29 129.113 133.743 126.524 131.886 123.177C130.028 119.778 129.1 115.855 129.1 111.41C129.1 106.965 130.001 103.068 131.806 99.7211C133.61 96.3738 136.131 93.8113 139.368 92.0328C142.659 90.2024 146.426 89.2871 150.672 89.2871C154.812 89.2871 158.473 90.1767 161.658 91.9544C164.842 93.7329 167.283 96.1906 168.981 99.3291C170.733 102.414 171.609 105.918 171.609 109.841ZM164.125 108.35C164.125 105.631 163.515 103.304 162.294 101.368C161.074 99.3811 159.402 97.8907 157.28 96.897C155.21 95.8506 152.902 95.3281 150.354 95.3281C146.692 95.3281 143.561 96.4786 140.96 98.7795C138.413 101.08 136.954 104.271 136.582 108.35H164.125ZM185.23 96.9754C186.504 94.517 188.308 92.6081 190.643 91.2488C193.032 89.8887 195.923 89.2087 199.32 89.2087V96.5834H197.41C189.29 96.5834 185.23 100.924 185.23 109.606V132.983H177.986V89.9935H185.23V96.9754Z" fill="#141414"/>
</svg>
