<svg width="1920" height="1080" viewBox="0 0 1920 1080" fill="none" xmlns="http://www.w3.org/2000/svg">
<g clip-path="url(#clip0_46_49)">
<rect width="1920" height="1080" fill="#FFCC00"/>
<g opacity="0.6">
<g style="mix-blend-mode:overlay">
<g clip-path="url(#clip1_46_49)">
<path d="M292.128 733.784L288.419 805.171" stroke="#4A3AFF" stroke-width="13.7708" stroke-linecap="round" stroke-linejoin="round"/>
<path d="M253.51 810.881C262.967 826.642 288.036 850.413 312.66 819.411" stroke="#4A3AFF" stroke-width="13.7708" stroke-linecap="round" stroke-linejoin="round"/>
<path d="M333.366 818.56C342.266 831.106 362.626 857.313 372.861 861.763L395.482 818.56L444.804 845.816" stroke="#9B93FF" stroke-width="13.7708" stroke-linecap="round" stroke-linejoin="round"/>
<path d="M333.086 876.502L389.084 906.17L366.833 946.221" stroke="#4A3AFF" stroke-width="13.7708" stroke-linecap="round" stroke-linejoin="round"/>
<path d="M251.87 949.883C272.823 949.698 313.615 959.043 309.165 997.907C304.715 1036.77 287.162 1042.04 278.942 1039.81" stroke="#B062FF" stroke-width="13.7708" stroke-linecap="square" stroke-linejoin="round"/>
<path d="M309.25 1051.92L342.119 1053.81L331.36 1105.58" stroke="#4A3AFF" stroke-width="13.7708" stroke-linecap="round" stroke-linejoin="round"/>
<path d="M242.632 1066.39C253.598 1077.91 281.971 1096.54 307.737 1078.87" stroke="#4A3AFF" stroke-width="13.7708" stroke-linecap="round" stroke-linejoin="round"/>
<path d="M-31.251 1094.92C-27.9527 1077.4 -6.74868 1035.52 68.4328 1012.16" stroke="#3AB8FF" stroke-width="13.7708" stroke-linecap="round" stroke-linejoin="round"/>
<path d="M498.396 1094.92C501.694 1077.4 522.898 1035.52 598.079 1012.16" stroke="#3AB8FF" stroke-width="13.7708" stroke-linecap="round" stroke-linejoin="round"/>
<path d="M436.152 890.027L403.826 862.071" stroke="#B062FF" stroke-width="13.7708" stroke-linecap="round" stroke-linejoin="round"/>
<path d="M114.271 968.701L177.129 937.364V997.812L241.285 968.701L212.174 1043.98" stroke="#4A3AFF" stroke-width="13.7708" stroke-linecap="round" stroke-linejoin="round"/>
<path d="M-37.287 819.343C-15.2436 810.369 38.1577 801.643 75.4163 838.533" stroke="#4A3AFF" stroke-width="13.7708" stroke-linecap="round" stroke-linejoin="round"/>
<path d="M492.358 819.343C514.401 810.369 567.802 801.643 605.061 838.533" stroke="#4A3AFF" stroke-width="13.7708" stroke-linecap="round" stroke-linejoin="round"/>
<path d="M445.433 796.702L466.46 811.744V841.484L501.735 846.33" stroke="#4A3AFF" stroke-width="13.7708" stroke-linecap="round" stroke-linejoin="round"/>
<path d="M231.627 670.144L202.864 712.241L181.685 676.622L151.322 717.896L143.35 662.593" stroke="#4A3AFF" stroke-width="13.7708" stroke-linecap="round" stroke-linejoin="round"/>
<path d="M447.759 719.745C437.905 732.919 420.268 762.62 428.548 776.027" stroke="#9B93FF" stroke-width="13.7708" stroke-linecap="round" stroke-linejoin="round"/>
<path fill-rule="evenodd" clip-rule="evenodd" d="M452.043 925.235C452.973 921.548 450.738 917.805 447.051 916.876C443.363 915.946 439.62 918.181 438.691 921.869L432.599 946.025L403.895 938.838C400.207 937.915 396.467 940.156 395.544 943.845C394.62 947.534 396.862 951.273 400.551 952.197L429.233 959.378L423.103 983.688C422.173 987.376 424.408 991.119 428.096 992.048C431.783 992.978 435.526 990.743 436.456 987.055L442.591 962.723L470.336 969.67C474.025 970.594 477.764 968.352 478.688 964.663C479.611 960.975 477.37 957.235 473.681 956.312L445.958 949.37L452.043 925.235Z" fill="#3AB8FF"/>
<path fill-rule="evenodd" clip-rule="evenodd" d="M36.3135 691.344C37.2433 687.657 35.0078 683.914 31.3206 682.984C27.6333 682.055 23.8904 684.29 22.9607 687.977L16.8695 712.134L-11.8346 704.947C-15.5234 704.023 -19.2626 706.265 -20.1862 709.954C-21.1099 713.643 -18.8682 717.382 -15.1794 718.305L13.5025 725.487L7.37272 749.797C6.44296 753.485 8.67839 757.227 12.3657 758.157C16.053 759.087 19.7958 756.851 20.7256 753.164L26.861 728.832L54.6062 735.779C58.2951 736.703 62.0342 734.461 62.9579 730.772C63.8815 727.083 61.6399 723.344 57.951 722.421L30.2279 715.479L36.3135 691.344Z" fill="#4A3AFF"/>
<path fill-rule="evenodd" clip-rule="evenodd" d="M565.96 691.344C566.89 687.657 564.654 683.914 560.967 682.984C557.28 682.055 553.537 684.29 552.607 687.977L546.516 712.134L517.812 704.947C514.123 704.023 510.384 706.265 509.46 709.954C508.537 713.643 510.778 717.382 514.467 718.305L543.149 725.487L537.019 749.797C536.089 753.485 538.325 757.227 542.012 758.157C545.699 759.087 549.442 756.851 550.372 753.164L556.507 728.832L584.253 735.779C587.942 736.703 591.681 734.461 592.604 730.772C593.528 727.083 591.286 723.344 587.598 722.421L559.874 715.479L565.96 691.344Z" fill="#4A3AFF"/>
<path fill-rule="evenodd" clip-rule="evenodd" d="M97.5825 950.884C100.04 947.982 99.6808 943.637 96.7792 941.179C93.8776 938.721 89.5329 939.081 87.075 941.983L73.7599 957.701L68.7347 952.487C66.0957 949.75 61.7369 949.669 58.9989 952.308C56.261 954.947 56.1808 959.306 58.8198 962.044L64.8133 968.262L53.6787 981.407C51.2207 984.308 51.5804 988.653 54.4819 991.111C57.3835 993.569 61.7282 993.209 64.1862 990.308L74.4189 978.228L82.091 986.188C84.7299 988.926 89.0888 989.006 91.8267 986.367C94.5647 983.728 94.6449 979.369 92.0059 976.631L83.3654 967.667L97.5825 950.884Z" fill="#4A3AFF"/>
<path fill-rule="evenodd" clip-rule="evenodd" d="M114.125 752.226C117.848 751.452 120.238 747.805 119.463 744.082C118.688 740.36 115.042 737.97 111.319 738.744L47.1637 752.095C43.4408 752.869 41.0508 756.515 41.8255 760.238C42.6002 763.961 46.2463 766.351 49.9692 765.577L114.125 752.226ZM118.709 778.119C122.409 777.242 124.697 773.531 123.82 769.831C122.942 766.131 119.232 763.842 115.531 764.72L50.6341 780.11C46.934 780.987 44.6458 784.698 45.5232 788.398C46.4007 792.098 50.1115 794.386 53.8116 793.509L118.709 778.119Z" fill="#3AB8FF"/>
<path fill-rule="evenodd" clip-rule="evenodd" d="M197.694 885.024C197.122 881.265 193.612 878.68 189.852 879.252C186.092 879.823 183.508 883.334 184.079 887.093L192.052 939.567C192.623 943.327 196.134 945.911 199.894 945.34C203.653 944.769 206.238 941.258 205.667 937.499L197.694 885.024ZM222.617 885.659C222.286 881.871 218.947 879.068 215.159 879.399C211.37 879.73 208.568 883.069 208.898 886.857L212.607 929.318C212.938 933.107 216.277 935.91 220.065 935.579C223.853 935.248 226.656 931.909 226.325 928.12L222.617 885.659Z" fill="#4A3AFF"/>
<path fill-rule="evenodd" clip-rule="evenodd" d="M152.422 751.91C150.663 751.248 148.709 751.335 147.015 752.15C145.321 752.965 144.034 754.437 143.452 756.224L125.652 810.923C124.475 814.54 126.453 818.425 130.069 819.602C133.685 820.778 137.57 818.801 138.747 815.185L154.319 767.334L201.349 785.011C204.909 786.349 208.879 784.548 210.217 780.988C211.555 777.429 209.754 773.459 206.194 772.121L152.422 751.91ZM171.165 791.945C170.535 788.195 166.984 785.666 163.234 786.296C159.484 786.926 156.954 790.477 157.585 794.228C160.334 810.586 175.528 846.091 214.88 861.608C218.417 863.003 222.416 861.266 223.811 857.728C225.206 854.19 223.469 850.192 219.931 848.797C186.301 835.536 173.36 805.007 171.165 791.945Z" fill="#B062FF"/>
<mask id="path-25-inside-1_46_49" fill="white">
<rect x="247.873" y="852.629" width="70.46" height="70.46" rx="3.99881"/>
</mask>
<rect x="247.873" y="852.629" width="70.46" height="70.46" rx="3.99881" stroke="#3AB8FF" stroke-width="27.5416" stroke-linejoin="round" mask="url(#path-25-inside-1_46_49)"/>
<mask id="path-26-inside-2_46_49" fill="white">
<rect x="338.87" y="764.915" width="47.4678" height="47.4678" rx="3.99881" transform="rotate(-14.0017 338.87 764.915)"/>
</mask>
<rect x="338.87" y="764.915" width="47.4678" height="47.4678" rx="3.99881" transform="rotate(-14.0017 338.87 764.915)" stroke="#4A3AFF" stroke-width="27.5416" stroke-linejoin="round" mask="url(#path-26-inside-2_46_49)"/>
<mask id="path-27-inside-3_46_49" fill="white">
<rect x="87.499" y="1040.61" width="69.1444" height="69.1444" rx="3.99881" transform="rotate(-45 87.499 1040.61)"/>
</mask>
<rect x="87.499" y="1040.61" width="69.1444" height="69.1444" rx="3.99881" transform="rotate(-45 87.499 1040.61)" stroke="#9B93FF" stroke-width="27.5416" stroke-linejoin="round" mask="url(#path-27-inside-3_46_49)"/>
<mask id="path-28-inside-4_46_49" fill="white">
<rect x="363.559" y="1068.22" width="78.2111" height="85.4814" rx="3.99881" transform="rotate(-51.7263 363.559 1068.22)"/>
</mask>
<rect x="363.559" y="1068.22" width="78.2111" height="85.4814" rx="3.99881" transform="rotate(-51.7263 363.559 1068.22)" stroke="#B062FF" stroke-width="27.5416" stroke-linejoin="round" mask="url(#path-28-inside-4_46_49)"/>
<circle cx="362.789" cy="995.3" r="24.0799" stroke="#4A3AFF" stroke-width="13.7708" stroke-linejoin="round"/>
<circle cx="132.22" cy="876.495" r="29.4571" stroke="#9B93FF" stroke-width="13.7708" stroke-linejoin="round"/>
<circle cx="240.123" cy="745.467" r="26.305" stroke="#4A3AFF" stroke-width="13.7708" stroke-linejoin="round"/>
<circle cx="498.956" cy="892.216" r="16.1068" stroke="#4A3AFF" stroke-width="13.7708" stroke-linejoin="round"/>
<circle cx="531.731" cy="966.139" r="35.2052" stroke="#9B93FF" stroke-width="13.7708" stroke-linejoin="round"/>
<circle cx="2.08472" cy="966.139" r="35.2052" stroke="#9B93FF" stroke-width="13.7708" stroke-linejoin="round"/>
<circle cx="360.169" cy="694.602" r="41.1387" transform="rotate(22.673 360.169 694.602)" stroke="#B062FF" stroke-width="13.7708" stroke-linejoin="round"/>
<path d="M31.8371 1102.72L70.6585 1076.01L74.3822 1122.98L31.8371 1102.72Z" stroke="#4A3AFF" stroke-width="13.7708" stroke-linejoin="round"/>
<path d="M522.616 753.621L483.794 780.334L480.07 733.357L522.616 753.621Z" stroke="#3AB8FF" stroke-width="13.7708" stroke-linejoin="round"/>
<path d="M-7.03096 753.621L-45.8524 780.334L-49.576 733.357L-7.03096 753.621Z" stroke="#4A3AFF" stroke-width="13.7708" stroke-linejoin="round"/>
<path d="M531.228 1117.14L577.851 1110.28L560.477 1154.09L531.228 1117.14Z" stroke="#4A3AFF" stroke-width="13.7708" stroke-linejoin="round"/>
<path d="M70.6677 870.116L70.6669 870.119C70.6672 870.118 70.6674 870.117 70.6677 870.116L73.4936 870.704L70.6677 870.116ZM69.6483 875.01L60.8368 917.317L28.6036 888.533L69.6483 875.01Z" stroke="#B062FF" stroke-width="13.7708" stroke-linejoin="round"/>
<circle cx="217.406" cy="810.966" r="7.60226" fill="#9B93FF"/>
<circle cx="338.851" cy="925.972" r="7.60226" fill="#9B93FF"/>
<circle cx="36.5744" cy="854.144" r="7.60226" fill="#4A3AFF"/>
<circle cx="95.3664" cy="705.419" r="7.60226" fill="#9B93FF"/>
<circle cx="205.249" cy="1077.21" r="7.60226" fill="#4A3AFF"/>
<circle cx="39.5686" cy="1058.31" r="7.60226" fill="#4A3AFF"/>
<circle cx="265.671" cy="999.23" r="7.60226" fill="#B062FF"/>
<circle cx="421.309" cy="1063.99" r="7.60226" fill="#4A3AFF"/>
<circle cx="473.586" cy="1015.85" r="7.60226" fill="#4A3AFF"/>
<circle cx="546.787" cy="1071.17" r="7.60226" fill="#4A3AFF"/>
</g>
</g>
<g style="mix-blend-mode:overlay">
<g clip-path="url(#clip2_46_49)">
<path d="M940.573 733.785L936.864 805.172" stroke="#4A3AFF" stroke-width="13.7708" stroke-linecap="round" stroke-linejoin="round"/>
<path d="M901.955 810.882C911.412 826.642 936.48 850.413 961.104 819.411" stroke="#4A3AFF" stroke-width="13.7708" stroke-linecap="round" stroke-linejoin="round"/>
<path d="M981.811 818.56C990.711 831.107 1011.07 857.313 1021.31 861.763L1043.93 818.56L1093.25 845.817" stroke="#9B93FF" stroke-width="13.7708" stroke-linecap="round" stroke-linejoin="round"/>
<path d="M981.531 876.502L1037.53 906.17L1015.28 946.221" stroke="#4A3AFF" stroke-width="13.7708" stroke-linecap="round" stroke-linejoin="round"/>
<path d="M900.315 949.883C921.268 949.698 962.061 959.043 957.611 997.907C953.16 1036.77 935.607 1042.04 927.387 1039.81" stroke="#B062FF" stroke-width="13.7708" stroke-linecap="square" stroke-linejoin="round"/>
<path d="M957.694 1051.92L990.564 1053.81L979.804 1105.58" stroke="#4A3AFF" stroke-width="13.7708" stroke-linecap="round" stroke-linejoin="round"/>
<path d="M891.077 1066.39C902.042 1077.91 930.415 1096.54 956.182 1078.87" stroke="#4A3AFF" stroke-width="13.7708" stroke-linecap="round" stroke-linejoin="round"/>
<path d="M617.194 1094.92C620.492 1077.4 641.696 1035.52 716.878 1012.16" stroke="#3AB8FF" stroke-width="13.7708" stroke-linecap="round" stroke-linejoin="round"/>
<path d="M1146.84 1094.92C1150.14 1077.4 1171.34 1035.52 1246.52 1012.16" stroke="#3AB8FF" stroke-width="13.7708" stroke-linecap="round" stroke-linejoin="round"/>
<path d="M1084.6 890.027L1052.27 862.072" stroke="#B062FF" stroke-width="13.7708" stroke-linecap="round" stroke-linejoin="round"/>
<path d="M762.717 968.701L825.575 937.365V997.812L889.73 968.701L860.619 1043.98" stroke="#4A3AFF" stroke-width="13.7708" stroke-linecap="round" stroke-linejoin="round"/>
<path d="M611.158 819.343C633.202 810.369 686.603 801.643 723.862 838.533" stroke="#4A3AFF" stroke-width="13.7708" stroke-linecap="round" stroke-linejoin="round"/>
<path d="M1140.8 819.343C1162.85 810.369 1216.25 801.643 1253.51 838.533" stroke="#4A3AFF" stroke-width="13.7708" stroke-linecap="round" stroke-linejoin="round"/>
<path d="M1093.88 796.702L1114.9 811.744V841.484L1150.18 846.33" stroke="#4A3AFF" stroke-width="13.7708" stroke-linecap="round" stroke-linejoin="round"/>
<path d="M880.072 670.144L851.309 712.241L830.129 676.623L799.767 717.896L791.795 662.593" stroke="#4A3AFF" stroke-width="13.7708" stroke-linecap="round" stroke-linejoin="round"/>
<path d="M1096.2 719.745C1086.35 732.919 1068.71 762.62 1076.99 776.027" stroke="#9B93FF" stroke-width="13.7708" stroke-linecap="round" stroke-linejoin="round"/>
<path fill-rule="evenodd" clip-rule="evenodd" d="M1100.49 925.236C1101.42 921.548 1099.18 917.806 1095.49 916.876C1091.81 915.946 1088.06 918.182 1087.13 921.869L1081.04 946.026L1052.34 938.838C1048.65 937.915 1044.91 940.156 1043.99 943.845C1043.06 947.534 1045.31 951.273 1048.99 952.197L1077.68 959.379L1071.55 983.689C1070.62 987.376 1072.85 991.119 1076.54 992.049C1080.23 992.978 1083.97 990.743 1084.9 987.056L1091.03 962.723L1118.78 969.67C1122.47 970.594 1126.21 968.352 1127.13 964.664C1128.06 960.975 1125.81 957.236 1122.12 956.312L1094.4 949.37L1100.49 925.236Z" fill="#3AB8FF"/>
<path fill-rule="evenodd" clip-rule="evenodd" d="M684.76 691.344C685.69 687.657 683.454 683.914 679.767 682.985C676.08 682.055 672.337 684.29 671.407 687.977L665.316 712.134L636.612 704.947C632.923 704.023 629.184 706.265 628.26 709.954C627.336 713.643 629.578 717.382 633.267 718.306L661.949 725.487L655.819 749.797C654.889 753.485 657.125 757.228 660.812 758.157C664.499 759.087 668.242 756.852 669.172 753.164L675.307 728.832L703.053 735.779C706.741 736.703 710.481 734.461 711.404 730.772C712.328 727.084 710.086 723.344 706.397 722.421L678.674 715.479L684.76 691.344Z" fill="#4A3AFF"/>
<path fill-rule="evenodd" clip-rule="evenodd" d="M1214.41 691.344C1215.34 687.657 1213.1 683.914 1209.41 682.985C1205.73 682.055 1201.98 684.29 1201.05 687.977L1194.96 712.134L1166.26 704.947C1162.57 704.023 1158.83 706.265 1157.91 709.954C1156.98 713.643 1159.22 717.382 1162.91 718.306L1191.6 725.487L1185.47 749.797C1184.54 753.485 1186.77 757.228 1190.46 758.157C1194.15 759.087 1197.89 756.852 1198.82 753.164L1204.95 728.832L1232.7 735.779C1236.39 736.703 1240.13 734.461 1241.05 730.772C1241.97 727.084 1239.73 723.344 1236.04 722.421L1208.32 715.479L1214.41 691.344Z" fill="#4A3AFF"/>
<path fill-rule="evenodd" clip-rule="evenodd" d="M746.027 950.884C748.485 947.983 748.125 943.638 745.224 941.18C742.322 938.722 737.977 939.082 735.519 941.983L722.204 957.702L717.179 952.488C714.54 949.75 710.181 949.67 707.443 952.309C704.705 954.948 704.625 959.307 707.264 962.045L713.258 968.263L702.123 981.407C699.665 984.309 700.025 988.654 702.926 991.112C705.828 993.57 710.173 993.21 712.631 990.308L722.863 978.229L730.535 986.188C733.174 988.926 737.533 989.007 740.271 986.368C743.009 983.729 743.089 979.37 740.45 976.632L731.81 967.667L746.027 950.884Z" fill="#4A3AFF"/>
<path fill-rule="evenodd" clip-rule="evenodd" d="M762.571 752.226C766.294 751.452 768.684 747.806 767.909 744.083C767.135 740.36 763.489 737.97 759.766 738.744L695.61 752.095C691.887 752.869 689.497 756.516 690.272 760.238C691.046 763.961 694.693 766.351 698.416 765.577L762.571 752.226ZM767.155 778.119C770.855 777.242 773.144 773.531 772.266 769.831C771.389 766.131 767.678 763.843 763.978 764.72L699.08 780.11C695.38 780.987 693.092 784.698 693.97 788.398C694.847 792.098 698.558 794.387 702.258 793.509L767.155 778.119Z" fill="#3AB8FF"/>
<path fill-rule="evenodd" clip-rule="evenodd" d="M846.137 885.025C845.566 881.265 842.055 878.68 838.296 879.252C834.536 879.823 831.952 883.334 832.523 887.093L840.496 939.567C841.067 943.327 844.578 945.911 848.338 945.34C852.097 944.769 854.682 941.258 854.111 937.499L846.137 885.025ZM871.061 885.659C870.73 881.871 867.391 879.068 863.602 879.399C859.814 879.73 857.011 883.069 857.342 886.857L861.051 929.319C861.382 933.107 864.721 935.91 868.509 935.579C872.297 935.248 875.1 931.909 874.769 928.12L871.061 885.659Z" fill="#4A3AFF"/>
<path fill-rule="evenodd" clip-rule="evenodd" d="M800.867 751.91C799.107 751.249 797.153 751.335 795.459 752.15C793.766 752.965 792.478 754.437 791.897 756.224L774.096 810.924C772.919 814.54 774.897 818.425 778.513 819.602C782.129 820.779 786.014 818.801 787.191 815.185L802.763 767.334L849.794 785.011C853.353 786.349 857.323 784.548 858.661 780.989C859.999 777.429 858.198 773.459 854.639 772.121L800.867 751.91ZM819.609 791.945C818.979 788.195 815.428 785.666 811.678 786.296C807.928 786.927 805.399 790.478 806.029 794.228C808.778 810.586 823.973 846.091 863.324 861.608C866.862 863.003 870.86 861.266 872.255 857.728C873.65 854.191 871.913 850.192 868.375 848.797C834.745 835.536 821.805 805.007 819.609 791.945Z" fill="#B062FF"/>
<mask id="path-75-inside-5_46_49" fill="white">
<rect x="896.315" y="852.629" width="70.46" height="70.46" rx="3.99881"/>
</mask>
<rect x="896.315" y="852.629" width="70.46" height="70.46" rx="3.99881" stroke="#3AB8FF" stroke-width="27.5416" stroke-linejoin="round" mask="url(#path-75-inside-5_46_49)"/>
<mask id="path-76-inside-6_46_49" fill="white">
<rect x="987.313" y="764.915" width="47.4678" height="47.4678" rx="3.99881" transform="rotate(-14.0017 987.313 764.915)"/>
</mask>
<rect x="987.313" y="764.915" width="47.4678" height="47.4678" rx="3.99881" transform="rotate(-14.0017 987.313 764.915)" stroke="#4A3AFF" stroke-width="27.5416" stroke-linejoin="round" mask="url(#path-76-inside-6_46_49)"/>
<mask id="path-77-inside-7_46_49" fill="white">
<rect x="735.942" y="1040.61" width="69.1444" height="69.1444" rx="3.99881" transform="rotate(-45 735.942 1040.61)"/>
</mask>
<rect x="735.942" y="1040.61" width="69.1444" height="69.1444" rx="3.99881" transform="rotate(-45 735.942 1040.61)" stroke="#9B93FF" stroke-width="27.5416" stroke-linejoin="round" mask="url(#path-77-inside-7_46_49)"/>
<mask id="path-78-inside-8_46_49" fill="white">
<rect x="1012" y="1068.22" width="78.2111" height="85.4814" rx="3.99881" transform="rotate(-51.7263 1012 1068.22)"/>
</mask>
<rect x="1012" y="1068.22" width="78.2111" height="85.4814" rx="3.99881" transform="rotate(-51.7263 1012 1068.22)" stroke="#B062FF" stroke-width="27.5416" stroke-linejoin="round" mask="url(#path-78-inside-8_46_49)"/>
<circle cx="1011.23" cy="995.3" r="24.0799" stroke="#4A3AFF" stroke-width="13.7708" stroke-linejoin="round"/>
<circle cx="780.663" cy="876.495" r="29.4571" stroke="#9B93FF" stroke-width="13.7708" stroke-linejoin="round"/>
<circle cx="888.567" cy="745.467" r="26.305" stroke="#4A3AFF" stroke-width="13.7708" stroke-linejoin="round"/>
<circle cx="1147.4" cy="892.216" r="16.1068" stroke="#4A3AFF" stroke-width="13.7708" stroke-linejoin="round"/>
<circle cx="1180.17" cy="966.139" r="35.2052" stroke="#9B93FF" stroke-width="13.7708" stroke-linejoin="round"/>
<circle cx="650.528" cy="966.139" r="35.2052" stroke="#9B93FF" stroke-width="13.7708" stroke-linejoin="round"/>
<circle cx="1008.61" cy="694.603" r="41.1387" transform="rotate(22.673 1008.61 694.603)" stroke="#B062FF" stroke-width="13.7708" stroke-linejoin="round"/>
<path d="M680.282 1102.72L719.103 1076.01L722.827 1122.98L680.282 1102.72Z" stroke="#4A3AFF" stroke-width="13.7708" stroke-linejoin="round"/>
<path d="M1171.06 753.621L1132.24 780.334L1128.52 733.357L1171.06 753.621Z" stroke="#3AB8FF" stroke-width="13.7708" stroke-linejoin="round"/>
<path d="M641.414 753.621L602.592 780.334L598.869 733.357L641.414 753.621Z" stroke="#4A3AFF" stroke-width="13.7708" stroke-linejoin="round"/>
<path d="M1179.67 1117.14L1226.3 1110.28L1208.92 1154.09L1179.67 1117.14Z" stroke="#4A3AFF" stroke-width="13.7708" stroke-linejoin="round"/>
<path d="M719.113 870.116L719.112 870.12C719.112 870.118 719.112 870.117 719.113 870.116L721.938 870.705L719.113 870.116ZM718.093 875.011L709.282 917.318L677.048 888.533L718.093 875.011Z" stroke="#B062FF" stroke-width="13.7708" stroke-linejoin="round"/>
<circle cx="865.849" cy="810.966" r="7.60226" fill="#9B93FF"/>
<circle cx="987.294" cy="925.972" r="7.60226" fill="#9B93FF"/>
<circle cx="685.017" cy="854.144" r="7.60226" fill="#4A3AFF"/>
<circle cx="743.809" cy="705.419" r="7.60226" fill="#9B93FF"/>
<circle cx="853.692" cy="1077.21" r="7.60226" fill="#4A3AFF"/>
<circle cx="688.011" cy="1058.31" r="7.60226" fill="#4A3AFF"/>
<circle cx="914.113" cy="999.23" r="7.60226" fill="#B062FF"/>
<circle cx="1069.75" cy="1063.99" r="7.60226" fill="#4A3AFF"/>
<circle cx="1122.03" cy="1015.85" r="7.60226" fill="#4A3AFF"/>
<circle cx="1195.23" cy="1071.17" r="7.60226" fill="#4A3AFF"/>
</g>
</g>
<g style="mix-blend-mode:overlay">
<g clip-path="url(#clip3_46_49)">
<path d="M1589.01 733.785L1585.31 805.172" stroke="#4A3AFF" stroke-width="13.7708" stroke-linecap="round" stroke-linejoin="round"/>
<path d="M1550.4 810.882C1559.85 826.642 1584.92 850.413 1609.55 819.411" stroke="#4A3AFF" stroke-width="13.7708" stroke-linecap="round" stroke-linejoin="round"/>
<path d="M1630.25 818.56C1639.15 831.107 1659.51 857.313 1669.75 861.763L1692.37 818.56L1741.69 845.817" stroke="#9B93FF" stroke-width="13.7708" stroke-linecap="round" stroke-linejoin="round"/>
<path d="M1629.97 876.502L1685.97 906.17L1663.72 946.221" stroke="#4A3AFF" stroke-width="13.7708" stroke-linecap="round" stroke-linejoin="round"/>
<path d="M1548.76 949.883C1569.71 949.698 1610.5 959.043 1606.05 997.907C1601.6 1036.77 1584.05 1042.04 1575.83 1039.81" stroke="#B062FF" stroke-width="13.7708" stroke-linecap="square" stroke-linejoin="round"/>
<path d="M1606.14 1051.92L1639.01 1053.81L1628.25 1105.58" stroke="#4A3AFF" stroke-width="13.7708" stroke-linecap="round" stroke-linejoin="round"/>
<path d="M1539.52 1066.39C1550.48 1077.91 1578.86 1096.54 1604.62 1078.87" stroke="#4A3AFF" stroke-width="13.7708" stroke-linecap="round" stroke-linejoin="round"/>
<path d="M1265.64 1094.92C1268.93 1077.4 1290.14 1035.52 1365.32 1012.16" stroke="#3AB8FF" stroke-width="13.7708" stroke-linecap="round" stroke-linejoin="round"/>
<path d="M1795.28 1094.92C1798.58 1077.4 1819.78 1035.52 1894.97 1012.16" stroke="#3AB8FF" stroke-width="13.7708" stroke-linecap="round" stroke-linejoin="round"/>
<path d="M1733.04 890.027L1700.71 862.072" stroke="#B062FF" stroke-width="13.7708" stroke-linecap="round" stroke-linejoin="round"/>
<path d="M1411.16 968.701L1474.02 937.365V997.812L1538.17 968.701L1509.06 1043.98" stroke="#4A3AFF" stroke-width="13.7708" stroke-linecap="round" stroke-linejoin="round"/>
<path d="M1259.6 819.343C1281.64 810.369 1335.04 801.643 1372.3 838.533" stroke="#4A3AFF" stroke-width="13.7708" stroke-linecap="round" stroke-linejoin="round"/>
<path d="M1789.24 819.343C1811.29 810.369 1864.69 801.643 1901.95 838.533" stroke="#4A3AFF" stroke-width="13.7708" stroke-linecap="round" stroke-linejoin="round"/>
<path d="M1742.32 796.702L1763.35 811.744V841.484L1798.62 846.33" stroke="#4A3AFF" stroke-width="13.7708" stroke-linecap="round" stroke-linejoin="round"/>
<path d="M1528.51 670.144L1499.75 712.241L1478.57 676.623L1448.21 717.896L1440.24 662.593" stroke="#4A3AFF" stroke-width="13.7708" stroke-linecap="round" stroke-linejoin="round"/>
<path d="M1744.65 719.745C1734.79 732.919 1717.15 762.62 1725.43 776.027" stroke="#9B93FF" stroke-width="13.7708" stroke-linecap="round" stroke-linejoin="round"/>
<path fill-rule="evenodd" clip-rule="evenodd" d="M1748.93 925.236C1749.86 921.548 1747.62 917.806 1743.94 916.876C1740.25 915.946 1736.51 918.181 1735.58 921.869L1729.49 946.026L1700.78 938.838C1697.09 937.915 1693.35 940.156 1692.43 943.845C1691.51 947.534 1693.75 951.273 1697.44 952.197L1726.12 959.378L1719.99 983.689C1719.06 987.376 1721.29 991.119 1724.98 992.049C1728.67 992.978 1732.41 990.743 1733.34 987.056L1739.48 962.723L1767.22 969.67C1770.91 970.594 1774.65 968.352 1775.57 964.664C1776.5 960.975 1774.26 957.236 1770.57 956.312L1742.84 949.37L1748.93 925.236Z" fill="#3AB8FF"/>
<path fill-rule="evenodd" clip-rule="evenodd" d="M1333.2 691.344C1334.13 687.657 1331.89 683.914 1328.21 682.985C1324.52 682.055 1320.78 684.29 1319.85 687.977L1313.76 712.134L1285.05 704.947C1281.36 704.023 1277.62 706.265 1276.7 709.954C1275.78 713.643 1278.02 717.382 1281.71 718.306L1310.39 725.487L1304.26 749.797C1303.33 753.485 1305.56 757.228 1309.25 758.157C1312.94 759.087 1316.68 756.852 1317.61 753.164L1323.75 728.832L1351.49 735.779C1355.18 736.703 1358.92 734.461 1359.84 730.772C1360.77 727.084 1358.53 723.344 1354.84 722.421L1327.11 715.479L1333.2 691.344Z" fill="#4A3AFF"/>
<path fill-rule="evenodd" clip-rule="evenodd" d="M1862.85 691.344C1863.78 687.657 1861.54 683.914 1857.85 682.985C1854.17 682.055 1850.42 684.29 1849.49 687.977L1843.4 712.134L1814.7 704.947C1811.01 704.023 1807.27 706.265 1806.35 709.954C1805.42 713.643 1807.66 717.382 1811.35 718.306L1840.04 725.487L1833.91 749.797C1832.98 753.485 1835.21 757.228 1838.9 758.157C1842.59 759.087 1846.33 756.852 1847.26 753.164L1853.39 728.832L1881.14 735.779C1884.83 736.703 1888.57 734.461 1889.49 730.772C1890.41 727.084 1888.17 723.344 1884.48 722.421L1856.76 715.479L1862.85 691.344Z" fill="#4A3AFF"/>
<path fill-rule="evenodd" clip-rule="evenodd" d="M1394.47 950.884C1396.93 947.983 1396.57 943.638 1393.67 941.18C1390.76 938.722 1386.42 939.082 1383.96 941.983L1370.65 957.702L1365.62 952.488C1362.98 949.75 1358.62 949.67 1355.89 952.309C1353.15 954.948 1353.07 959.307 1355.71 962.045L1361.7 968.263L1350.56 981.407C1348.11 984.309 1348.47 988.654 1351.37 991.112C1354.27 993.57 1358.61 993.21 1361.07 990.308L1371.31 978.229L1378.98 986.188C1381.62 988.926 1385.98 989.007 1388.71 986.368C1391.45 983.729 1391.53 979.37 1388.89 976.632L1380.25 967.667L1394.47 950.884Z" fill="#4A3AFF"/>
<path fill-rule="evenodd" clip-rule="evenodd" d="M1411.01 752.226C1414.73 751.452 1417.12 747.806 1416.35 744.083C1415.57 740.36 1411.93 737.97 1408.21 738.744L1344.05 752.095C1340.33 752.869 1337.94 756.516 1338.71 760.238C1339.49 763.961 1343.13 766.351 1346.86 765.577L1411.01 752.226ZM1415.6 778.119C1419.3 777.242 1421.58 773.531 1420.71 769.831C1419.83 766.131 1416.12 763.843 1412.42 764.72L1347.52 780.11C1343.82 780.987 1341.53 784.698 1342.41 788.398C1343.29 792.098 1347 794.387 1350.7 793.509L1415.6 778.119Z" fill="#3AB8FF"/>
<path fill-rule="evenodd" clip-rule="evenodd" d="M1494.58 885.025C1494.01 881.265 1490.5 878.68 1486.74 879.252C1482.98 879.823 1480.39 883.334 1480.97 887.093L1488.94 939.567C1489.51 943.327 1493.02 945.912 1496.78 945.34C1500.54 944.769 1503.12 941.258 1502.55 937.499L1494.58 885.025ZM1519.5 885.659C1519.17 881.871 1515.83 879.068 1512.04 879.399C1508.26 879.73 1505.45 883.069 1505.78 886.857L1509.49 929.319C1509.82 933.107 1513.16 935.91 1516.95 935.579C1520.74 935.248 1523.54 931.909 1523.21 928.121L1519.5 885.659Z" fill="#4A3AFF"/>
<path fill-rule="evenodd" clip-rule="evenodd" d="M1449.31 751.91C1447.55 751.249 1445.6 751.335 1443.9 752.15C1442.21 752.965 1440.92 754.437 1440.34 756.224L1422.54 810.924C1421.36 814.54 1423.34 818.425 1426.95 819.602C1430.57 820.779 1434.46 818.801 1435.63 815.185L1451.2 767.334L1498.24 785.011C1501.8 786.349 1505.77 784.548 1507.1 780.989C1508.44 777.429 1506.64 773.459 1503.08 772.121L1449.31 751.91ZM1468.05 791.945C1467.42 788.195 1463.87 785.666 1460.12 786.296C1456.37 786.927 1453.84 790.478 1454.47 794.228C1457.22 810.586 1472.41 846.091 1511.77 861.608C1515.3 863.003 1519.3 861.266 1520.7 857.728C1522.09 854.191 1520.35 850.192 1516.82 848.797C1483.19 835.536 1470.25 805.007 1468.05 791.945Z" fill="#B062FF"/>
<mask id="path-125-inside-9_46_49" fill="white">
<rect x="1544.76" y="852.629" width="70.46" height="70.46" rx="3.99881"/>
</mask>
<rect x="1544.76" y="852.629" width="70.46" height="70.46" rx="3.99881" stroke="#3AB8FF" stroke-width="27.5416" stroke-linejoin="round" mask="url(#path-125-inside-9_46_49)"/>
<mask id="path-126-inside-10_46_49" fill="white">
<rect x="1635.76" y="764.915" width="47.4678" height="47.4678" rx="3.99881" transform="rotate(-14.0017 1635.76 764.915)"/>
</mask>
<rect x="1635.76" y="764.915" width="47.4678" height="47.4678" rx="3.99881" transform="rotate(-14.0017 1635.76 764.915)" stroke="#4A3AFF" stroke-width="27.5416" stroke-linejoin="round" mask="url(#path-126-inside-10_46_49)"/>
<mask id="path-127-inside-11_46_49" fill="white">
<rect x="1384.38" y="1040.61" width="69.1444" height="69.1444" rx="3.99881" transform="rotate(-45 1384.38 1040.61)"/>
</mask>
<rect x="1384.38" y="1040.61" width="69.1444" height="69.1444" rx="3.99881" transform="rotate(-45 1384.38 1040.61)" stroke="#9B93FF" stroke-width="27.5416" stroke-linejoin="round" mask="url(#path-127-inside-11_46_49)"/>
<mask id="path-128-inside-12_46_49" fill="white">
<rect x="1660.44" y="1068.22" width="78.2111" height="85.4814" rx="3.99881" transform="rotate(-51.7263 1660.44 1068.22)"/>
</mask>
<rect x="1660.44" y="1068.22" width="78.2111" height="85.4814" rx="3.99881" transform="rotate(-51.7263 1660.44 1068.22)" stroke="#B062FF" stroke-width="27.5416" stroke-linejoin="round" mask="url(#path-128-inside-12_46_49)"/>
<circle cx="1659.68" cy="995.3" r="24.0799" stroke="#4A3AFF" stroke-width="13.7708" stroke-linejoin="round"/>
<circle cx="1429.11" cy="876.495" r="29.4571" stroke="#9B93FF" stroke-width="13.7708" stroke-linejoin="round"/>
<circle cx="1537.01" cy="745.467" r="26.305" stroke="#4A3AFF" stroke-width="13.7708" stroke-linejoin="round"/>
<circle cx="1795.84" cy="892.216" r="16.1068" stroke="#4A3AFF" stroke-width="13.7708" stroke-linejoin="round"/>
<circle cx="1828.62" cy="966.139" r="35.2052" stroke="#9B93FF" stroke-width="13.7708" stroke-linejoin="round"/>
<circle cx="1298.97" cy="966.139" r="35.2052" stroke="#9B93FF" stroke-width="13.7708" stroke-linejoin="round"/>
<circle cx="1657.05" cy="694.603" r="41.1387" transform="rotate(22.673 1657.05 694.603)" stroke="#B062FF" stroke-width="13.7708" stroke-linejoin="round"/>
<path d="M1328.72 1102.72L1367.54 1076.01L1371.27 1122.98L1328.72 1102.72Z" stroke="#4A3AFF" stroke-width="13.7708" stroke-linejoin="round"/>
<path d="M1819.5 753.621L1780.68 780.334L1776.96 733.357L1819.5 753.621Z" stroke="#3AB8FF" stroke-width="13.7708" stroke-linejoin="round"/>
<path d="M1289.85 753.621L1251.03 780.334L1247.31 733.357L1289.85 753.621Z" stroke="#4A3AFF" stroke-width="13.7708" stroke-linejoin="round"/>
<path d="M1828.11 1117.14L1874.74 1110.28L1857.36 1154.09L1828.11 1117.14Z" stroke="#4A3AFF" stroke-width="13.7708" stroke-linejoin="round"/>
<path d="M1367.55 870.116L1367.55 870.12C1367.55 870.118 1367.55 870.117 1367.55 870.116L1370.38 870.705L1367.55 870.116ZM1366.53 875.011L1357.72 917.318L1325.49 888.533L1366.53 875.011Z" stroke="#B062FF" stroke-width="13.7708" stroke-linejoin="round"/>
<circle cx="1514.29" cy="810.966" r="7.60226" fill="#9B93FF"/>
<circle cx="1635.74" cy="925.972" r="7.60226" fill="#9B93FF"/>
<circle cx="1333.46" cy="854.144" r="7.60226" fill="#4A3AFF"/>
<circle cx="1392.25" cy="705.419" r="7.60226" fill="#9B93FF"/>
<circle cx="1502.14" cy="1077.21" r="7.60226" fill="#4A3AFF"/>
<circle cx="1336.45" cy="1058.31" r="7.60226" fill="#4A3AFF"/>
<circle cx="1562.56" cy="999.23" r="7.60226" fill="#B062FF"/>
<circle cx="1718.2" cy="1063.99" r="7.60226" fill="#4A3AFF"/>
<circle cx="1770.47" cy="1015.85" r="7.60226" fill="#4A3AFF"/>
<circle cx="1843.67" cy="1071.17" r="7.60226" fill="#4A3AFF"/>
</g>
</g>
<g style="mix-blend-mode:overlay">
<g clip-path="url(#clip4_46_49)">
<path d="M292.128 110.671L288.419 182.058" stroke="#4A3AFF" stroke-width="13.7708" stroke-linecap="round" stroke-linejoin="round"/>
<path d="M253.51 187.768C262.967 203.529 288.036 227.3 312.66 196.297" stroke="#4A3AFF" stroke-width="13.7708" stroke-linecap="round" stroke-linejoin="round"/>
<path d="M333.366 195.446C342.266 207.993 362.626 234.199 372.861 238.649L395.482 195.446L444.804 222.703" stroke="#9B93FF" stroke-width="13.7708" stroke-linecap="round" stroke-linejoin="round"/>
<path d="M333.086 253.389L389.084 283.056L366.833 323.107" stroke="#4A3AFF" stroke-width="13.7708" stroke-linecap="round" stroke-linejoin="round"/>
<path d="M251.87 326.77C272.823 326.584 313.615 335.93 309.165 374.794C304.715 413.658 287.162 418.924 278.942 416.699" stroke="#B062FF" stroke-width="13.7708" stroke-linecap="square" stroke-linejoin="round"/>
<path d="M309.25 428.802L342.119 430.701L331.36 482.462" stroke="#4A3AFF" stroke-width="13.7708" stroke-linecap="round" stroke-linejoin="round"/>
<path d="M242.632 443.273C253.598 454.798 281.971 473.43 307.737 455.754" stroke="#4A3AFF" stroke-width="13.7708" stroke-linecap="round" stroke-linejoin="round"/>
<path d="M-31.251 471.802C-27.9527 454.285 -6.74868 412.405 68.4328 389.049" stroke="#3AB8FF" stroke-width="13.7708" stroke-linecap="round" stroke-linejoin="round"/>
<path d="M498.396 471.802C501.694 454.285 522.898 412.405 598.079 389.049" stroke="#3AB8FF" stroke-width="13.7708" stroke-linecap="round" stroke-linejoin="round"/>
<path d="M436.152 266.914L403.826 238.958" stroke="#B062FF" stroke-width="13.7708" stroke-linecap="round" stroke-linejoin="round"/>
<path d="M114.271 345.587L177.129 314.251V374.698L241.285 345.587L212.174 420.868" stroke="#4A3AFF" stroke-width="13.7708" stroke-linecap="round" stroke-linejoin="round"/>
<path d="M209.802 554.985C221.855 549.67 251.04 542.228 271.362 554.985" stroke="#4A3AFF" stroke-width="13.7708" stroke-linecap="round" stroke-linejoin="round"/>
<path d="M201.724 495.751C213.467 480.547 242.851 459.261 266.436 495.751" stroke="#9B93FF" stroke-width="13.7708" stroke-linecap="round" stroke-linejoin="round"/>
<path d="M101.131 584.809C78.4898 586.616 34.9088 577.705 41.7136 527.605" stroke="#9B93FF" stroke-width="13.7708" stroke-linecap="round" stroke-linejoin="round"/>
<path d="M351.189 499.639C354.124 517.611 373.789 551.159 428.973 541.578" stroke="#4A3AFF" stroke-width="13.7708" stroke-linecap="round" stroke-linejoin="round"/>
<path d="M-37.287 196.229C-15.2436 187.255 38.1577 178.53 75.4163 215.42" stroke="#4A3AFF" stroke-width="13.7708" stroke-linecap="round" stroke-linejoin="round"/>
<path d="M492.358 196.229C514.401 187.255 567.802 178.53 605.061 215.42" stroke="#4A3AFF" stroke-width="13.7708" stroke-linecap="round" stroke-linejoin="round"/>
<path d="M309.53 511.05L294.217 541.738" stroke="#4A3AFF" stroke-width="13.7708" stroke-linecap="round" stroke-linejoin="round"/>
<path d="M445.433 173.589L466.46 188.631V218.37L501.735 223.217" stroke="#4A3AFF" stroke-width="13.7708" stroke-linecap="round" stroke-linejoin="round"/>
<path d="M231.627 576.677L202.864 618.774L181.685 583.155L151.322 624.429L143.35 569.126" stroke="#4A3AFF" stroke-width="13.7708" stroke-linecap="round" stroke-linejoin="round"/>
<path d="M231.627 47.0305L202.864 89.1271L181.685 53.509L151.322 94.7826L143.35 39.4792" stroke="#4A3AFF" stroke-width="13.7708" stroke-linecap="round" stroke-linejoin="round"/>
<path d="M447.759 96.6312C437.905 109.806 420.268 139.506 428.548 152.913" stroke="#9B93FF" stroke-width="13.7708" stroke-linecap="round" stroke-linejoin="round"/>
<path fill-rule="evenodd" clip-rule="evenodd" d="M452.043 302.122C452.973 298.435 450.738 294.692 447.051 293.762C443.363 292.832 439.62 295.068 438.691 298.755L432.599 322.912L403.895 315.725C400.207 314.801 396.467 317.043 395.544 320.732C394.62 324.42 396.862 328.16 400.551 329.083L429.233 336.265L423.103 360.575C422.173 364.262 424.408 368.005 428.096 368.935C431.783 369.865 435.526 367.629 436.456 363.942L442.591 339.61L470.336 346.557C474.025 347.48 477.764 345.239 478.688 341.55C479.611 337.861 477.37 334.122 473.681 333.198L445.958 326.257L452.043 302.122Z" fill="#3AB8FF"/>
<path fill-rule="evenodd" clip-rule="evenodd" d="M36.3135 68.2308C37.2433 64.5436 35.0078 60.8007 31.3206 59.871C27.6333 58.9412 23.8904 61.1766 22.9607 64.8639L16.8695 89.0208L-11.8346 81.8336C-15.5234 80.9099 -19.2626 83.1516 -20.1862 86.8404C-21.1099 90.5292 -18.8682 94.2684 -15.1794 95.192L13.5025 102.374L7.37272 126.684C6.44296 130.371 8.67839 134.114 12.3657 135.044C16.053 135.974 19.7958 133.738 20.7256 130.051L26.861 105.718L54.6062 112.666C58.2951 113.589 62.0342 111.348 62.9579 107.659C63.8815 103.97 61.6399 100.231 57.951 99.3072L30.2279 92.3656L36.3135 68.2308Z" fill="#4A3AFF"/>
<path fill-rule="evenodd" clip-rule="evenodd" d="M565.96 68.2308C566.89 64.5436 564.654 60.8007 560.967 59.871C557.28 58.9412 553.537 61.1766 552.607 64.8639L546.516 89.0208L517.812 81.8336C514.123 80.9099 510.384 83.1516 509.46 86.8404C508.537 90.5292 510.778 94.2684 514.467 95.192L543.149 102.374L537.019 126.684C536.089 130.371 538.325 134.114 542.012 135.044C545.699 135.974 549.442 133.738 550.372 130.051L556.507 105.718L584.253 112.666C587.942 113.589 591.681 111.348 592.604 107.659C593.528 103.97 591.286 100.231 587.598 99.3072L559.874 92.3656L565.96 68.2308Z" fill="#4A3AFF"/>
<path fill-rule="evenodd" clip-rule="evenodd" d="M36.3135 597.877C37.2433 594.19 35.0078 590.447 31.3206 589.517C27.6333 588.588 23.8904 590.823 22.9607 594.51L16.8695 618.667L-11.8346 611.48C-15.5234 610.556 -19.2626 612.798 -20.1862 616.487C-21.1099 620.176 -18.8682 623.915 -15.1794 624.838L13.5025 632.02L7.37272 656.33C6.44296 660.018 8.67839 663.76 12.3657 664.69C16.053 665.62 19.7958 663.384 20.7256 659.697L26.861 635.365L54.6062 642.312C58.2951 643.236 62.0342 640.994 62.9579 637.305C63.8815 633.616 61.6399 629.877 57.951 628.954L30.2279 622.012L36.3135 597.877Z" fill="#4A3AFF"/>
<path fill-rule="evenodd" clip-rule="evenodd" d="M97.5825 327.771C100.04 324.869 99.6808 320.525 96.7792 318.067C93.8776 315.609 89.5329 315.968 87.075 318.87L73.7599 334.588L68.7347 329.375C66.0957 326.637 61.7369 326.557 58.9989 329.195C56.261 331.834 56.1808 336.193 58.8198 338.931L64.8133 345.15L53.6787 358.294C51.2207 361.195 51.5804 365.54 54.4819 367.998C57.3835 370.456 61.7282 370.096 64.1862 367.195L74.4189 355.115L82.091 363.075C84.7299 365.813 89.0888 365.893 91.8267 363.254C94.5647 360.615 94.6449 356.256 92.0059 353.518L83.3654 344.554L97.5825 327.771Z" fill="#4A3AFF"/>
<path fill-rule="evenodd" clip-rule="evenodd" d="M114.125 129.113C117.848 128.338 120.238 124.692 119.463 120.969C118.688 117.246 115.042 114.856 111.319 115.631L47.1637 128.981C43.4408 129.756 41.0508 133.402 41.8255 137.125C42.6002 140.848 46.2463 143.238 49.9692 142.463L114.125 129.113ZM118.709 155.006C122.409 154.128 124.697 150.417 123.82 146.717C122.942 143.017 119.232 140.729 115.531 141.606L50.6341 156.996C46.934 157.874 44.6458 161.585 45.5232 165.285C46.4007 168.985 50.1115 171.273 53.8116 170.396L118.709 155.006Z" fill="#3AB8FF"/>
<path fill-rule="evenodd" clip-rule="evenodd" d="M197.694 261.911C197.122 258.151 193.612 255.567 189.852 256.138C186.092 256.709 183.508 260.22 184.079 263.98L192.052 316.454C192.623 320.213 196.134 322.798 199.894 322.227C203.653 321.656 206.238 318.145 205.667 314.385L197.694 261.911ZM222.617 262.546C222.286 258.757 218.947 255.954 215.159 256.285C211.37 256.616 208.568 259.955 208.898 263.744L212.607 306.205C212.938 309.993 216.277 312.796 220.065 312.465C223.853 312.134 226.656 308.795 226.325 305.007L222.617 262.546Z" fill="#4A3AFF"/>
<path fill-rule="evenodd" clip-rule="evenodd" d="M152.422 128.796C150.663 128.135 148.709 128.222 147.015 129.037C145.321 129.851 144.034 131.323 143.452 133.111L125.652 187.81C124.475 191.426 126.453 195.311 130.069 196.488C133.685 197.665 137.57 195.687 138.747 192.071L154.319 144.221L201.349 161.898C204.909 163.236 208.879 161.435 210.217 157.875C211.555 154.315 209.754 150.345 206.194 149.007L152.422 128.796ZM171.165 168.832C170.535 165.082 166.984 162.552 163.234 163.183C159.484 163.813 156.954 167.364 157.585 171.114C160.334 187.473 175.528 222.978 214.88 238.494C218.417 239.889 222.416 238.152 223.811 234.615C225.206 231.077 223.469 227.078 219.931 225.684C186.301 212.423 173.36 181.893 171.165 168.832Z" fill="#B062FF"/>
<path fill-rule="evenodd" clip-rule="evenodd" d="M175.814 475.947C178.116 472.92 177.528 468.6 174.501 466.299C171.474 463.997 167.155 464.585 164.853 467.612L133.922 508.289C131.62 511.316 132.208 515.635 135.235 517.937C138.262 520.239 142.581 519.651 144.883 516.624L175.814 475.947ZM121.144 488.049C120.74 484.268 117.347 481.53 113.566 481.934C109.784 482.339 107.047 485.732 107.451 489.513L113.018 541.577C113.219 543.457 114.184 545.171 115.686 546.318C117.189 547.465 119.097 547.944 120.963 547.642L171.433 539.482C175.187 538.875 177.738 535.339 177.131 531.586C176.524 527.832 172.989 525.28 169.235 525.887L125.938 532.888L121.144 488.049Z" fill="#3AB8FF"/>
<mask id="path-183-inside-13_46_49" fill="white">
<rect x="247.873" y="229.515" width="70.46" height="70.46" rx="3.99881"/>
</mask>
<rect x="247.873" y="229.515" width="70.46" height="70.46" rx="3.99881" stroke="#3AB8FF" stroke-width="27.5416" stroke-linejoin="round" mask="url(#path-183-inside-13_46_49)"/>
<mask id="path-184-inside-14_46_49" fill="white">
<rect x="338.87" y="141.801" width="47.4678" height="47.4678" rx="3.99881" transform="rotate(-14.0017 338.87 141.801)"/>
</mask>
<rect x="338.87" y="141.801" width="47.4678" height="47.4678" rx="3.99881" transform="rotate(-14.0017 338.87 141.801)" stroke="#4A3AFF" stroke-width="27.5416" stroke-linejoin="round" mask="url(#path-184-inside-14_46_49)"/>
<mask id="path-185-inside-15_46_49" fill="white">
<rect x="87.499" y="417.496" width="69.1444" height="69.1444" rx="3.99881" transform="rotate(-45 87.499 417.496)"/>
</mask>
<rect x="87.499" y="417.496" width="69.1444" height="69.1444" rx="3.99881" transform="rotate(-45 87.499 417.496)" stroke="#9B93FF" stroke-width="27.5416" stroke-linejoin="round" mask="url(#path-185-inside-15_46_49)"/>
<mask id="path-186-inside-16_46_49" fill="white">
<rect x="363.559" y="445.11" width="78.2111" height="85.4814" rx="3.99881" transform="rotate(-51.7263 363.559 445.11)"/>
</mask>
<rect x="363.559" y="445.11" width="78.2111" height="85.4814" rx="3.99881" transform="rotate(-51.7263 363.559 445.11)" stroke="#B062FF" stroke-width="27.5416" stroke-linejoin="round" mask="url(#path-186-inside-16_46_49)"/>
<circle cx="362.789" cy="372.187" r="24.0799" stroke="#4A3AFF" stroke-width="13.7708" stroke-linejoin="round"/>
<circle cx="132.22" cy="253.382" r="29.4571" stroke="#9B93FF" stroke-width="13.7708" stroke-linejoin="round"/>
<circle cx="240.123" cy="122.353" r="26.305" stroke="#4A3AFF" stroke-width="13.7708" stroke-linejoin="round"/>
<circle cx="498.956" cy="269.103" r="16.1068" stroke="#4A3AFF" stroke-width="13.7708" stroke-linejoin="round"/>
<circle cx="531.731" cy="343.025" r="35.2052" stroke="#9B93FF" stroke-width="13.7708" stroke-linejoin="round"/>
<circle cx="2.08472" cy="343.025" r="35.2052" stroke="#9B93FF" stroke-width="13.7708" stroke-linejoin="round"/>
<circle cx="360.169" cy="601.135" r="41.1387" transform="rotate(22.673 360.169 601.135)" stroke="#B062FF" stroke-width="13.7708" stroke-linejoin="round"/>
<circle cx="360.169" cy="71.489" r="41.1387" transform="rotate(22.673 360.169 71.489)" stroke="#B062FF" stroke-width="13.7708" stroke-linejoin="round"/>
<path d="M31.8371 479.607L70.6585 452.894L74.3822 499.87L31.8371 479.607Z" stroke="#4A3AFF" stroke-width="13.7708" stroke-linejoin="round"/>
<path d="M449.901 575.701L477.514 512.074L518.193 568.254L449.901 575.701Z" stroke="#4A3AFF" stroke-width="13.7708" stroke-linejoin="round"/>
<path d="M522.616 130.507L483.794 157.221L480.07 110.244L522.616 130.507Z" stroke="#3AB8FF" stroke-width="13.7708" stroke-linejoin="round"/>
<path d="M-7.03096 130.507L-45.8524 157.221L-49.576 110.244L-7.03096 130.507Z" stroke="#4A3AFF" stroke-width="13.7708" stroke-linejoin="round"/>
<path d="M531.228 494.023L577.851 487.168L560.477 530.972L531.228 494.023Z" stroke="#4A3AFF" stroke-width="13.7708" stroke-linejoin="round"/>
<path d="M70.6677 247.002L70.6669 247.006C70.6672 247.005 70.6674 247.004 70.6677 247.002L73.4936 247.591L70.6677 247.002ZM69.6483 251.897L60.8368 294.204L28.6036 265.42L69.6483 251.897Z" stroke="#B062FF" stroke-width="13.7708" stroke-linejoin="round"/>
<circle cx="217.406" cy="187.852" r="7.60226" fill="#9B93FF"/>
<circle cx="338.851" cy="302.858" r="7.60226" fill="#9B93FF"/>
<circle cx="36.5744" cy="231.03" r="7.60226" fill="#4A3AFF"/>
<circle cx="95.3664" cy="82.3059" r="7.60226" fill="#9B93FF"/>
<circle cx="95.3664" cy="611.952" r="7.60226" fill="#9B93FF"/>
<circle cx="80.771" cy="549.019" r="7.60226" transform="rotate(127.459 80.771 549.019)" fill="#9B93FF"/>
<circle cx="233.68" cy="513.556" r="7.60226" fill="#9B93FF"/>
<circle cx="274.016" cy="591.773" r="7.60226" fill="#9B93FF"/>
<circle cx="396.682" cy="504.434" r="7.60226" fill="#4A3AFF"/>
<circle cx="205.249" cy="454.094" r="7.60226" fill="#4A3AFF"/>
<circle cx="360.135" cy="601.095" r="7.60226" fill="#B062FF"/>
<circle cx="39.5686" cy="435.199" r="7.60226" fill="#4A3AFF"/>
<circle cx="265.671" cy="376.117" r="7.60226" fill="#B062FF"/>
<circle cx="421.309" cy="440.876" r="7.60226" fill="#4A3AFF"/>
<circle cx="473.586" cy="392.732" r="7.60226" fill="#4A3AFF"/>
<circle cx="546.787" cy="448.055" r="7.60226" fill="#4A3AFF"/>
</g>
</g>
<g style="mix-blend-mode:overlay">
<g clip-path="url(#clip5_46_49)">
<path d="M940.573 110.671L936.864 182.058" stroke="#4A3AFF" stroke-width="13.7708" stroke-linecap="round" stroke-linejoin="round"/>
<path d="M901.955 187.768C911.412 203.529 936.48 227.3 961.104 196.297" stroke="#4A3AFF" stroke-width="13.7708" stroke-linecap="round" stroke-linejoin="round"/>
<path d="M981.811 195.446C990.711 207.993 1011.07 234.199 1021.31 238.649L1043.93 195.446L1093.25 222.703" stroke="#9B93FF" stroke-width="13.7708" stroke-linecap="round" stroke-linejoin="round"/>
<path d="M981.531 253.389L1037.53 283.056L1015.28 323.107" stroke="#4A3AFF" stroke-width="13.7708" stroke-linecap="round" stroke-linejoin="round"/>
<path d="M900.315 326.77C921.268 326.584 962.061 335.929 957.611 374.794C953.16 413.658 935.607 418.924 927.387 416.699" stroke="#B062FF" stroke-width="13.7708" stroke-linecap="square" stroke-linejoin="round"/>
<path d="M957.694 428.802L990.564 430.701L979.804 482.462" stroke="#4A3AFF" stroke-width="13.7708" stroke-linecap="round" stroke-linejoin="round"/>
<path d="M891.077 443.273C902.042 454.798 930.415 473.43 956.182 455.754" stroke="#4A3AFF" stroke-width="13.7708" stroke-linecap="round" stroke-linejoin="round"/>
<path d="M617.194 471.802C620.492 454.285 641.696 412.405 716.878 389.049" stroke="#3AB8FF" stroke-width="13.7708" stroke-linecap="round" stroke-linejoin="round"/>
<path d="M1146.84 471.802C1150.14 454.285 1171.34 412.405 1246.52 389.049" stroke="#3AB8FF" stroke-width="13.7708" stroke-linecap="round" stroke-linejoin="round"/>
<path d="M1084.6 266.913L1052.27 238.958" stroke="#B062FF" stroke-width="13.7708" stroke-linecap="round" stroke-linejoin="round"/>
<path d="M762.717 345.587L825.575 314.251V374.698L889.73 345.587L860.619 420.868" stroke="#4A3AFF" stroke-width="13.7708" stroke-linecap="round" stroke-linejoin="round"/>
<path d="M858.247 554.985C870.299 549.67 899.485 542.228 919.807 554.985" stroke="#4A3AFF" stroke-width="13.7708" stroke-linecap="round" stroke-linejoin="round"/>
<path d="M850.169 495.751C861.912 480.547 891.295 459.26 914.881 495.751" stroke="#9B93FF" stroke-width="13.7708" stroke-linecap="round" stroke-linejoin="round"/>
<path d="M749.576 584.809C726.935 586.616 683.354 577.705 690.159 527.605" stroke="#9B93FF" stroke-width="13.7708" stroke-linecap="round" stroke-linejoin="round"/>
<path d="M999.634 499.639C1002.57 517.611 1022.23 551.159 1077.42 541.578" stroke="#4A3AFF" stroke-width="13.7708" stroke-linecap="round" stroke-linejoin="round"/>
<path d="M611.158 196.229C633.202 187.255 686.603 178.53 723.862 215.42" stroke="#4A3AFF" stroke-width="13.7708" stroke-linecap="round" stroke-linejoin="round"/>
<path d="M1140.8 196.229C1162.85 187.255 1216.25 178.53 1253.51 215.42" stroke="#4A3AFF" stroke-width="13.7708" stroke-linecap="round" stroke-linejoin="round"/>
<path d="M957.975 511.05L942.662 541.738" stroke="#4A3AFF" stroke-width="13.7708" stroke-linecap="round" stroke-linejoin="round"/>
<path d="M1093.88 173.589L1114.9 188.631V218.37L1150.18 223.217" stroke="#4A3AFF" stroke-width="13.7708" stroke-linecap="round" stroke-linejoin="round"/>
<path d="M880.072 576.677L851.309 618.773L830.129 583.155L799.767 624.429L791.795 569.126" stroke="#4A3AFF" stroke-width="13.7708" stroke-linecap="round" stroke-linejoin="round"/>
<path d="M880.072 47.0304L851.309 89.1271L830.129 53.509L799.767 94.7825L791.795 39.4791" stroke="#4A3AFF" stroke-width="13.7708" stroke-linecap="round" stroke-linejoin="round"/>
<path d="M1096.2 96.6311C1086.35 109.806 1068.71 139.506 1076.99 152.913" stroke="#9B93FF" stroke-width="13.7708" stroke-linecap="round" stroke-linejoin="round"/>
<path fill-rule="evenodd" clip-rule="evenodd" d="M1100.49 302.122C1101.42 298.435 1099.18 294.692 1095.49 293.762C1091.81 292.832 1088.06 295.068 1087.13 298.755L1081.04 322.912L1052.34 315.725C1048.65 314.801 1044.91 317.043 1043.99 320.732C1043.06 324.42 1045.31 328.16 1048.99 329.083L1077.68 336.265L1071.55 360.575C1070.62 364.262 1072.85 368.005 1076.54 368.935C1080.23 369.865 1083.97 367.629 1084.9 363.942L1091.03 339.61L1118.78 346.557C1122.47 347.48 1126.21 345.239 1127.13 341.55C1128.06 337.861 1125.81 334.122 1122.12 333.198L1094.4 326.257L1100.49 302.122Z" fill="#3AB8FF"/>
<path fill-rule="evenodd" clip-rule="evenodd" d="M684.76 68.2308C685.69 64.5435 683.454 60.8006 679.767 59.8709C676.08 58.9411 672.337 61.1765 671.407 64.8638L665.316 89.0207L636.612 81.8335C632.923 80.9099 629.184 83.1515 628.26 86.8403C627.336 90.5291 629.578 94.2683 633.267 95.1919L661.949 102.374L655.819 126.684C654.889 130.371 657.125 134.114 660.812 135.044C664.499 135.973 668.242 133.738 669.172 130.051L675.307 105.718L703.053 112.666C706.741 113.589 710.481 111.348 711.404 107.659C712.328 103.97 710.086 100.231 706.397 99.3071L678.674 92.3655L684.76 68.2308Z" fill="#4A3AFF"/>
<path fill-rule="evenodd" clip-rule="evenodd" d="M1214.41 68.2308C1215.34 64.5435 1213.1 60.8006 1209.41 59.8709C1205.73 58.9411 1201.98 61.1765 1201.05 64.8638L1194.96 89.0207L1166.26 81.8335C1162.57 80.9099 1158.83 83.1515 1157.91 86.8403C1156.98 90.5291 1159.22 94.2683 1162.91 95.1919L1191.6 102.374L1185.47 126.684C1184.54 130.371 1186.77 134.114 1190.46 135.044C1194.15 135.973 1197.89 133.738 1198.82 130.051L1204.95 105.718L1232.7 112.666C1236.39 113.589 1240.13 111.348 1241.05 107.659C1241.97 103.97 1239.73 100.231 1236.04 99.3071L1208.32 92.3655L1214.41 68.2308Z" fill="#4A3AFF"/>
<path fill-rule="evenodd" clip-rule="evenodd" d="M684.76 597.877C685.69 594.19 683.454 590.447 679.767 589.517C676.08 588.588 672.337 590.823 671.407 594.51L665.316 618.667L636.612 611.48C632.923 610.556 629.184 612.798 628.26 616.487C627.336 620.176 629.578 623.915 633.267 624.838L661.949 632.02L655.819 656.33C654.889 660.018 657.125 663.76 660.812 664.69C664.499 665.62 668.242 663.384 669.172 659.697L675.307 635.365L703.053 642.312C706.741 643.236 710.481 640.994 711.404 637.305C712.328 633.616 710.086 629.877 706.397 628.954L678.674 622.012L684.76 597.877Z" fill="#4A3AFF"/>
<path fill-rule="evenodd" clip-rule="evenodd" d="M746.027 327.771C748.485 324.869 748.125 320.524 745.224 318.067C742.322 315.609 737.977 315.968 735.519 318.87L722.204 334.588L717.179 329.375C714.54 326.637 710.181 326.556 707.443 329.195C704.705 331.834 704.625 336.193 707.264 338.931L713.258 345.149L702.123 358.294C699.665 361.195 700.025 365.54 702.926 367.998C705.828 370.456 710.173 370.096 712.631 367.195L722.863 355.115L730.535 363.075C733.174 365.813 737.533 365.893 740.271 363.254C743.009 360.615 743.089 356.256 740.45 353.518L731.81 344.554L746.027 327.771Z" fill="#4A3AFF"/>
<path fill-rule="evenodd" clip-rule="evenodd" d="M762.571 129.113C766.294 128.338 768.684 124.692 767.909 120.969C767.135 117.246 763.489 114.856 759.766 115.631L695.61 128.981C691.887 129.756 689.497 133.402 690.272 137.125C691.046 140.848 694.693 143.238 698.416 142.463L762.571 129.113ZM767.155 155.006C770.855 154.128 773.144 150.417 772.266 146.717C771.389 143.017 767.678 140.729 763.978 141.606L699.08 156.996C695.38 157.874 693.092 161.585 693.97 165.285C694.847 168.985 698.558 171.273 702.258 170.396L767.155 155.006Z" fill="#3AB8FF"/>
<path fill-rule="evenodd" clip-rule="evenodd" d="M846.137 261.911C845.566 258.151 842.055 255.567 838.296 256.138C834.536 256.709 831.952 260.22 832.523 263.98L840.496 316.454C841.067 320.213 844.578 322.798 848.338 322.227C852.097 321.655 854.682 318.145 854.111 314.385L846.137 261.911ZM871.061 262.545C870.73 258.757 867.391 255.954 863.602 256.285C859.814 256.616 857.011 259.955 857.342 263.743L861.051 306.205C861.382 309.993 864.721 312.796 868.509 312.465C872.297 312.134 875.1 308.795 874.769 305.007L871.061 262.545Z" fill="#4A3AFF"/>
<path fill-rule="evenodd" clip-rule="evenodd" d="M800.867 128.796C799.107 128.135 797.153 128.222 795.459 129.037C793.766 129.851 792.478 131.323 791.897 133.111L774.096 187.81C772.919 191.426 774.897 195.311 778.513 196.488C782.129 197.665 786.014 195.687 787.191 192.071L802.763 144.22L849.794 161.898C853.353 163.235 857.323 161.434 858.661 157.875C859.999 154.315 858.198 150.345 854.639 149.007L800.867 128.796ZM819.609 168.832C818.979 165.082 815.428 162.552 811.678 163.183C807.928 163.813 805.399 167.364 806.029 171.114C808.778 187.472 823.973 222.978 863.324 238.494C866.862 239.889 870.86 238.152 872.255 234.615C873.65 231.077 871.913 227.078 868.375 225.683C834.745 212.423 821.805 181.893 819.609 168.832Z" fill="#B062FF"/>
<path fill-rule="evenodd" clip-rule="evenodd" d="M824.261 475.947C826.562 472.92 825.975 468.6 822.948 466.299C819.921 463.997 815.601 464.585 813.299 467.612L782.368 508.289C780.066 511.316 780.654 515.635 783.681 517.937C786.708 520.239 791.028 519.651 793.329 516.624L824.261 475.947ZM769.59 488.049C769.186 484.268 765.793 481.53 762.012 481.934C758.231 482.339 755.493 485.732 755.898 489.513L761.464 541.577C761.665 543.457 762.63 545.171 764.133 546.318C765.635 547.465 767.543 547.944 769.409 547.642L819.88 539.482C823.633 538.875 826.185 535.339 825.578 531.585C824.971 527.832 821.435 525.28 817.681 525.887L774.384 532.888L769.59 488.049Z" fill="#3AB8FF"/>
<mask id="path-249-inside-17_46_49" fill="white">
<rect x="896.315" y="229.515" width="70.46" height="70.46" rx="3.99881"/>
</mask>
<rect x="896.315" y="229.515" width="70.46" height="70.46" rx="3.99881" stroke="#3AB8FF" stroke-width="27.5416" stroke-linejoin="round" mask="url(#path-249-inside-17_46_49)"/>
<mask id="path-250-inside-18_46_49" fill="white">
<rect x="987.313" y="141.801" width="47.4678" height="47.4678" rx="3.99881" transform="rotate(-14.0017 987.313 141.801)"/>
</mask>
<rect x="987.313" y="141.801" width="47.4678" height="47.4678" rx="3.99881" transform="rotate(-14.0017 987.313 141.801)" stroke="#4A3AFF" stroke-width="27.5416" stroke-linejoin="round" mask="url(#path-250-inside-18_46_49)"/>
<mask id="path-251-inside-19_46_49" fill="white">
<rect x="735.942" y="417.496" width="69.1444" height="69.1444" rx="3.99881" transform="rotate(-45 735.942 417.496)"/>
</mask>
<rect x="735.942" y="417.496" width="69.1444" height="69.1444" rx="3.99881" transform="rotate(-45 735.942 417.496)" stroke="#9B93FF" stroke-width="27.5416" stroke-linejoin="round" mask="url(#path-251-inside-19_46_49)"/>
<mask id="path-252-inside-20_46_49" fill="white">
<rect x="1012" y="445.11" width="78.2111" height="85.4814" rx="3.99881" transform="rotate(-51.7263 1012 445.11)"/>
</mask>
<rect x="1012" y="445.11" width="78.2111" height="85.4814" rx="3.99881" transform="rotate(-51.7263 1012 445.11)" stroke="#B062FF" stroke-width="27.5416" stroke-linejoin="round" mask="url(#path-252-inside-20_46_49)"/>
<circle cx="1011.23" cy="372.187" r="24.0799" stroke="#4A3AFF" stroke-width="13.7708" stroke-linejoin="round"/>
<circle cx="780.663" cy="253.382" r="29.4571" stroke="#9B93FF" stroke-width="13.7708" stroke-linejoin="round"/>
<circle cx="888.567" cy="122.353" r="26.305" stroke="#4A3AFF" stroke-width="13.7708" stroke-linejoin="round"/>
<circle cx="1147.4" cy="269.103" r="16.1068" stroke="#4A3AFF" stroke-width="13.7708" stroke-linejoin="round"/>
<circle cx="1180.17" cy="343.025" r="35.2052" stroke="#9B93FF" stroke-width="13.7708" stroke-linejoin="round"/>
<circle cx="650.528" cy="343.025" r="35.2052" stroke="#9B93FF" stroke-width="13.7708" stroke-linejoin="round"/>
<circle cx="1008.61" cy="601.135" r="41.1387" transform="rotate(22.673 1008.61 601.135)" stroke="#B062FF" stroke-width="13.7708" stroke-linejoin="round"/>
<circle cx="1008.61" cy="71.4889" r="41.1387" transform="rotate(22.673 1008.61 71.4889)" stroke="#B062FF" stroke-width="13.7708" stroke-linejoin="round"/>
<path d="M680.282 479.607L719.103 452.893L722.827 499.87L680.282 479.607Z" stroke="#4A3AFF" stroke-width="13.7708" stroke-linejoin="round"/>
<path d="M1098.35 575.701L1125.96 512.073L1166.64 568.254L1098.35 575.701Z" stroke="#4A3AFF" stroke-width="13.7708" stroke-linejoin="round"/>
<path d="M1171.06 130.507L1132.24 157.221L1128.52 110.244L1171.06 130.507Z" stroke="#3AB8FF" stroke-width="13.7708" stroke-linejoin="round"/>
<path d="M641.414 130.507L602.592 157.221L598.869 110.244L641.414 130.507Z" stroke="#4A3AFF" stroke-width="13.7708" stroke-linejoin="round"/>
<path d="M1179.67 494.023L1226.3 487.168L1208.92 530.972L1179.67 494.023Z" stroke="#4A3AFF" stroke-width="13.7708" stroke-linejoin="round"/>
<path d="M719.113 247.002L719.112 247.006C719.112 247.005 719.112 247.003 719.113 247.002L721.938 247.591L719.113 247.002ZM718.093 251.897L709.282 294.204L677.048 265.419L718.093 251.897Z" stroke="#B062FF" stroke-width="13.7708" stroke-linejoin="round"/>
<circle cx="865.849" cy="187.852" r="7.60226" fill="#9B93FF"/>
<circle cx="987.294" cy="302.858" r="7.60226" fill="#9B93FF"/>
<circle cx="685.017" cy="231.03" r="7.60226" fill="#4A3AFF"/>
<circle cx="743.809" cy="82.3058" r="7.60226" fill="#9B93FF"/>
<circle cx="743.809" cy="611.952" r="7.60226" fill="#9B93FF"/>
<circle cx="729.214" cy="549.019" r="7.60226" transform="rotate(127.459 729.214 549.019)" fill="#9B93FF"/>
<circle cx="882.123" cy="513.556" r="7.60226" fill="#9B93FF"/>
<circle cx="922.459" cy="591.773" r="7.60226" fill="#9B93FF"/>
<circle cx="1045.12" cy="504.434" r="7.60226" fill="#4A3AFF"/>
<circle cx="853.692" cy="454.094" r="7.60226" fill="#4A3AFF"/>
<circle cx="1008.58" cy="601.095" r="7.60226" fill="#B062FF"/>
<circle cx="688.011" cy="435.199" r="7.60226" fill="#4A3AFF"/>
<circle cx="914.113" cy="376.117" r="7.60226" fill="#B062FF"/>
<circle cx="1069.75" cy="440.876" r="7.60226" fill="#4A3AFF"/>
<circle cx="1122.03" cy="392.732" r="7.60226" fill="#4A3AFF"/>
<circle cx="1195.23" cy="448.055" r="7.60226" fill="#4A3AFF"/>
</g>
</g>
<g style="mix-blend-mode:overlay">
<g clip-path="url(#clip6_46_49)">
<path d="M1589.01 110.671L1585.31 182.058" stroke="#4A3AFF" stroke-width="13.7708" stroke-linecap="round" stroke-linejoin="round"/>
<path d="M1550.4 187.768C1559.85 203.529 1584.92 227.3 1609.55 196.297" stroke="#4A3AFF" stroke-width="13.7708" stroke-linecap="round" stroke-linejoin="round"/>
<path d="M1630.25 195.446C1639.15 207.993 1659.51 234.199 1669.75 238.649L1692.37 195.446L1741.69 222.703" stroke="#9B93FF" stroke-width="13.7708" stroke-linecap="round" stroke-linejoin="round"/>
<path d="M1629.97 253.389L1685.97 283.056L1663.72 323.107" stroke="#4A3AFF" stroke-width="13.7708" stroke-linecap="round" stroke-linejoin="round"/>
<path d="M1548.76 326.77C1569.71 326.584 1610.5 335.929 1606.05 374.794C1601.6 413.658 1584.05 418.924 1575.83 416.699" stroke="#B062FF" stroke-width="13.7708" stroke-linecap="square" stroke-linejoin="round"/>
<path d="M1606.14 428.802L1639.01 430.701L1628.25 482.462" stroke="#4A3AFF" stroke-width="13.7708" stroke-linecap="round" stroke-linejoin="round"/>
<path d="M1539.52 443.273C1550.48 454.798 1578.86 473.43 1604.62 455.754" stroke="#4A3AFF" stroke-width="13.7708" stroke-linecap="round" stroke-linejoin="round"/>
<path d="M1265.64 471.802C1268.93 454.285 1290.14 412.405 1365.32 389.049" stroke="#3AB8FF" stroke-width="13.7708" stroke-linecap="round" stroke-linejoin="round"/>
<path d="M1795.28 471.802C1798.58 454.285 1819.78 412.405 1894.97 389.049" stroke="#3AB8FF" stroke-width="13.7708" stroke-linecap="round" stroke-linejoin="round"/>
<path d="M1733.04 266.913L1700.71 238.958" stroke="#B062FF" stroke-width="13.7708" stroke-linecap="round" stroke-linejoin="round"/>
<path d="M1411.16 345.587L1474.02 314.251V374.698L1538.17 345.587L1509.06 420.868" stroke="#4A3AFF" stroke-width="13.7708" stroke-linecap="round" stroke-linejoin="round"/>
<path d="M1506.69 554.985C1518.74 549.67 1547.93 542.228 1568.25 554.985" stroke="#4A3AFF" stroke-width="13.7708" stroke-linecap="round" stroke-linejoin="round"/>
<path d="M1498.61 495.751C1510.35 480.547 1539.74 459.26 1563.32 495.751" stroke="#9B93FF" stroke-width="13.7708" stroke-linecap="round" stroke-linejoin="round"/>
<path d="M1398.02 584.809C1375.38 586.616 1331.79 577.705 1338.6 527.605" stroke="#9B93FF" stroke-width="13.7708" stroke-linecap="round" stroke-linejoin="round"/>
<path d="M1648.08 499.639C1651.01 517.611 1670.68 551.159 1725.86 541.578" stroke="#4A3AFF" stroke-width="13.7708" stroke-linecap="round" stroke-linejoin="round"/>
<path d="M1259.6 196.229C1281.64 187.255 1335.04 178.53 1372.3 215.42" stroke="#4A3AFF" stroke-width="13.7708" stroke-linecap="round" stroke-linejoin="round"/>
<path d="M1789.24 196.229C1811.29 187.255 1864.69 178.53 1901.95 215.42" stroke="#4A3AFF" stroke-width="13.7708" stroke-linecap="round" stroke-linejoin="round"/>
<path d="M1606.42 511.05L1591.1 541.738" stroke="#4A3AFF" stroke-width="13.7708" stroke-linecap="round" stroke-linejoin="round"/>
<path d="M1742.32 173.589L1763.35 188.631V218.37L1798.62 223.217" stroke="#4A3AFF" stroke-width="13.7708" stroke-linecap="round" stroke-linejoin="round"/>
<path d="M1528.51 576.677L1499.75 618.773L1478.57 583.155L1448.21 624.429L1440.24 569.126" stroke="#4A3AFF" stroke-width="13.7708" stroke-linecap="round" stroke-linejoin="round"/>
<path d="M1528.51 47.0304L1499.75 89.1271L1478.57 53.509L1448.21 94.7825L1440.24 39.4791" stroke="#4A3AFF" stroke-width="13.7708" stroke-linecap="round" stroke-linejoin="round"/>
<path d="M1744.65 96.6311C1734.79 109.806 1717.15 139.506 1725.43 152.913" stroke="#9B93FF" stroke-width="13.7708" stroke-linecap="round" stroke-linejoin="round"/>
<path fill-rule="evenodd" clip-rule="evenodd" d="M1748.93 302.122C1749.86 298.435 1747.62 294.692 1743.94 293.762C1740.25 292.832 1736.51 295.068 1735.58 298.755L1729.49 322.912L1700.78 315.725C1697.09 314.801 1693.35 317.043 1692.43 320.732C1691.51 324.42 1693.75 328.16 1697.44 329.083L1726.12 336.265L1719.99 360.575C1719.06 364.262 1721.29 368.005 1724.98 368.935C1728.67 369.865 1732.41 367.629 1733.34 363.942L1739.48 339.61L1767.22 346.557C1770.91 347.48 1774.65 345.239 1775.57 341.55C1776.5 337.861 1774.26 334.122 1770.57 333.198L1742.84 326.257L1748.93 302.122Z" fill="#3AB8FF"/>
<path fill-rule="evenodd" clip-rule="evenodd" d="M1333.2 68.2308C1334.13 64.5435 1331.89 60.8006 1328.21 59.8709C1324.52 58.9411 1320.78 61.1765 1319.85 64.8638L1313.76 89.0207L1285.05 81.8335C1281.36 80.9099 1277.62 83.1515 1276.7 86.8403C1275.78 90.5291 1278.02 94.2683 1281.71 95.1919L1310.39 102.374L1304.26 126.684C1303.33 130.371 1305.56 134.114 1309.25 135.044C1312.94 135.973 1316.68 133.738 1317.61 130.051L1323.75 105.718L1351.49 112.666C1355.18 113.589 1358.92 111.348 1359.84 107.659C1360.77 103.97 1358.53 100.231 1354.84 99.3071L1327.11 92.3655L1333.2 68.2308Z" fill="#4A3AFF"/>
<path fill-rule="evenodd" clip-rule="evenodd" d="M1862.85 68.2308C1863.78 64.5435 1861.54 60.8006 1857.85 59.8709C1854.17 58.9411 1850.42 61.1765 1849.49 64.8638L1843.4 89.0207L1814.7 81.8335C1811.01 80.9099 1807.27 83.1515 1806.35 86.8403C1805.42 90.5291 1807.66 94.2683 1811.35 95.1919L1840.04 102.374L1833.91 126.684C1832.98 130.371 1835.21 134.114 1838.9 135.044C1842.59 135.973 1846.33 133.738 1847.26 130.051L1853.39 105.718L1881.14 112.666C1884.83 113.589 1888.57 111.348 1889.49 107.659C1890.41 103.97 1888.17 100.231 1884.48 99.3071L1856.76 92.3655L1862.85 68.2308Z" fill="#4A3AFF"/>
<path fill-rule="evenodd" clip-rule="evenodd" d="M1333.2 597.877C1334.13 594.19 1331.89 590.447 1328.21 589.517C1324.52 588.588 1320.78 590.823 1319.85 594.51L1313.76 618.667L1285.05 611.48C1281.36 610.556 1277.62 612.798 1276.7 616.487C1275.78 620.176 1278.02 623.915 1281.71 624.838L1310.39 632.02L1304.26 656.33C1303.33 660.018 1305.56 663.76 1309.25 664.69C1312.94 665.62 1316.68 663.384 1317.61 659.697L1323.75 635.365L1351.49 642.312C1355.18 643.236 1358.92 640.994 1359.84 637.305C1360.77 633.616 1358.53 629.877 1354.84 628.954L1327.11 622.012L1333.2 597.877Z" fill="#4A3AFF"/>
<path fill-rule="evenodd" clip-rule="evenodd" d="M1394.47 327.771C1396.92 324.87 1396.56 320.525 1393.66 318.067C1390.76 315.609 1386.42 315.969 1383.96 318.87L1370.64 334.589L1365.62 329.375C1362.98 326.637 1358.62 326.557 1355.88 329.196C1353.14 331.835 1353.06 336.194 1355.7 338.932L1361.7 345.15L1350.56 358.294C1348.1 361.196 1348.46 365.541 1351.37 367.999C1354.27 370.457 1358.61 370.097 1361.07 367.195L1371.3 355.116L1378.97 363.075C1381.61 365.813 1385.97 365.894 1388.71 363.255C1391.45 360.616 1391.53 356.257 1388.89 353.519L1380.25 344.554L1394.47 327.771Z" fill="#4A3AFF"/>
<path fill-rule="evenodd" clip-rule="evenodd" d="M1411.01 129.113C1414.73 128.338 1417.12 124.692 1416.35 120.969C1415.57 117.246 1411.93 114.856 1408.21 115.631L1344.05 128.981C1340.33 129.756 1337.94 133.402 1338.71 137.125C1339.49 140.848 1343.13 143.238 1346.86 142.463L1411.01 129.113ZM1415.6 155.006C1419.3 154.128 1421.58 150.417 1420.71 146.717C1419.83 143.017 1416.12 140.729 1412.42 141.606L1347.52 156.996C1343.82 157.874 1341.53 161.585 1342.41 165.285C1343.29 168.985 1347 171.273 1350.7 170.396L1415.6 155.006Z" fill="#3AB8FF"/>
<path fill-rule="evenodd" clip-rule="evenodd" d="M1494.58 261.911C1494.01 258.151 1490.5 255.567 1486.74 256.138C1482.98 256.709 1480.39 260.22 1480.97 263.98L1488.94 316.454C1489.51 320.213 1493.02 322.798 1496.78 322.227C1500.54 321.655 1503.12 318.145 1502.55 314.385L1494.58 261.911ZM1519.5 262.545C1519.17 258.757 1515.83 255.954 1512.04 256.285C1508.26 256.616 1505.45 259.955 1505.78 263.744L1509.49 306.205C1509.82 309.993 1513.16 312.796 1516.95 312.465C1520.74 312.134 1523.54 308.795 1523.21 305.007L1519.5 262.545Z" fill="#4A3AFF"/>
<path fill-rule="evenodd" clip-rule="evenodd" d="M1449.31 128.796C1447.55 128.135 1445.6 128.222 1443.9 129.037C1442.21 129.851 1440.92 131.323 1440.34 133.111L1422.54 187.81C1421.36 191.426 1423.34 195.311 1426.95 196.488C1430.57 197.665 1434.46 195.687 1435.63 192.071L1451.2 144.22L1498.24 161.898C1501.8 163.235 1505.77 161.434 1507.1 157.875C1508.44 154.315 1506.64 150.345 1503.08 149.007L1449.31 128.796ZM1468.05 168.832C1467.42 165.082 1463.87 162.552 1460.12 163.183C1456.37 163.813 1453.84 167.364 1454.47 171.114C1457.22 187.472 1472.41 222.978 1511.77 238.494C1515.3 239.889 1519.3 238.152 1520.7 234.615C1522.09 231.077 1520.35 227.078 1516.82 225.683C1483.19 212.423 1470.25 181.893 1468.05 168.832Z" fill="#B062FF"/>
<path fill-rule="evenodd" clip-rule="evenodd" d="M1472.7 475.947C1475 472.92 1474.41 468.6 1471.39 466.299C1468.36 463.997 1464.04 464.585 1461.74 467.612L1430.81 508.289C1428.51 511.316 1429.09 515.635 1432.12 517.937C1435.15 520.239 1439.47 519.651 1441.77 516.624L1472.7 475.947ZM1418.03 488.049C1417.63 484.268 1414.23 481.53 1410.45 481.934C1406.67 482.339 1403.93 485.732 1404.34 489.513L1409.9 541.577C1410.1 543.457 1411.07 545.171 1412.57 546.318C1414.08 547.465 1415.98 547.944 1417.85 547.642L1468.32 539.482C1472.07 538.875 1474.62 535.339 1474.02 531.585C1473.41 527.832 1469.88 525.28 1466.12 525.887L1422.82 532.888L1418.03 488.049Z" fill="#3AB8FF"/>
<mask id="path-315-inside-21_46_49" fill="white">
<rect x="1544.76" y="229.515" width="70.46" height="70.46" rx="3.99881"/>
</mask>
<rect x="1544.76" y="229.515" width="70.46" height="70.46" rx="3.99881" stroke="#3AB8FF" stroke-width="27.5416" stroke-linejoin="round" mask="url(#path-315-inside-21_46_49)"/>
<mask id="path-316-inside-22_46_49" fill="white">
<rect x="1635.76" y="141.801" width="47.4678" height="47.4678" rx="3.99881" transform="rotate(-14.0017 1635.76 141.801)"/>
</mask>
<rect x="1635.76" y="141.801" width="47.4678" height="47.4678" rx="3.99881" transform="rotate(-14.0017 1635.76 141.801)" stroke="#4A3AFF" stroke-width="27.5416" stroke-linejoin="round" mask="url(#path-316-inside-22_46_49)"/>
<mask id="path-317-inside-23_46_49" fill="white">
<rect x="1384.38" y="417.496" width="69.1444" height="69.1444" rx="3.99881" transform="rotate(-45 1384.38 417.496)"/>
</mask>
<rect x="1384.38" y="417.496" width="69.1444" height="69.1444" rx="3.99881" transform="rotate(-45 1384.38 417.496)" stroke="#9B93FF" stroke-width="27.5416" stroke-linejoin="round" mask="url(#path-317-inside-23_46_49)"/>
<mask id="path-318-inside-24_46_49" fill="white">
<rect x="1660.44" y="445.11" width="78.2111" height="85.4814" rx="3.99881" transform="rotate(-51.7263 1660.44 445.11)"/>
</mask>
<rect x="1660.44" y="445.11" width="78.2111" height="85.4814" rx="3.99881" transform="rotate(-51.7263 1660.44 445.11)" stroke="#B062FF" stroke-width="27.5416" stroke-linejoin="round" mask="url(#path-318-inside-24_46_49)"/>
<circle cx="1659.68" cy="372.187" r="24.0799" stroke="#4A3AFF" stroke-width="13.7708" stroke-linejoin="round"/>
<circle cx="1429.11" cy="253.382" r="29.4571" stroke="#9B93FF" stroke-width="13.7708" stroke-linejoin="round"/>
<circle cx="1537.01" cy="122.353" r="26.305" stroke="#4A3AFF" stroke-width="13.7708" stroke-linejoin="round"/>
<circle cx="1795.84" cy="269.103" r="16.1068" stroke="#4A3AFF" stroke-width="13.7708" stroke-linejoin="round"/>
<circle cx="1828.62" cy="343.025" r="35.2052" stroke="#9B93FF" stroke-width="13.7708" stroke-linejoin="round"/>
<circle cx="1298.97" cy="343.025" r="35.2052" stroke="#9B93FF" stroke-width="13.7708" stroke-linejoin="round"/>
<circle cx="1657.05" cy="601.135" r="41.1387" transform="rotate(22.673 1657.05 601.135)" stroke="#B062FF" stroke-width="13.7708" stroke-linejoin="round"/>
<circle cx="1657.05" cy="71.4889" r="41.1387" transform="rotate(22.673 1657.05 71.4889)" stroke="#B062FF" stroke-width="13.7708" stroke-linejoin="round"/>
<path d="M1328.72 479.607L1367.54 452.893L1371.27 499.87L1328.72 479.607Z" stroke="#4A3AFF" stroke-width="13.7708" stroke-linejoin="round"/>
<path d="M1746.79 575.701L1774.4 512.073L1815.08 568.254L1746.79 575.701Z" stroke="#4A3AFF" stroke-width="13.7708" stroke-linejoin="round"/>
<path d="M1819.5 130.507L1780.68 157.221L1776.96 110.244L1819.5 130.507Z" stroke="#3AB8FF" stroke-width="13.7708" stroke-linejoin="round"/>
<path d="M1289.85 130.507L1251.03 157.221L1247.31 110.244L1289.85 130.507Z" stroke="#4A3AFF" stroke-width="13.7708" stroke-linejoin="round"/>
<path d="M1828.11 494.023L1874.74 487.168L1857.36 530.972L1828.11 494.023Z" stroke="#4A3AFF" stroke-width="13.7708" stroke-linejoin="round"/>
<path d="M1367.55 247.002L1367.55 247.006C1367.55 247.005 1367.55 247.003 1367.55 247.002L1370.38 247.591L1367.55 247.002ZM1366.53 251.897L1357.72 294.204L1325.49 265.419L1366.53 251.897Z" stroke="#B062FF" stroke-width="13.7708" stroke-linejoin="round"/>
<circle cx="1514.29" cy="187.852" r="7.60226" fill="#9B93FF"/>
<circle cx="1635.74" cy="302.858" r="7.60226" fill="#9B93FF"/>
<circle cx="1333.46" cy="231.03" r="7.60226" fill="#4A3AFF"/>
<circle cx="1392.25" cy="82.3058" r="7.60226" fill="#9B93FF"/>
<circle cx="1392.25" cy="611.952" r="7.60226" fill="#9B93FF"/>
<circle cx="1377.66" cy="549.019" r="7.60226" transform="rotate(127.459 1377.66 549.019)" fill="#9B93FF"/>
<circle cx="1530.57" cy="513.556" r="7.60226" fill="#9B93FF"/>
<circle cx="1570.9" cy="591.773" r="7.60226" fill="#9B93FF"/>
<circle cx="1693.57" cy="504.434" r="7.60226" fill="#4A3AFF"/>
<circle cx="1502.14" cy="454.094" r="7.60226" fill="#4A3AFF"/>
<circle cx="1657.02" cy="601.095" r="7.60226" fill="#B062FF"/>
<circle cx="1336.45" cy="435.199" r="7.60226" fill="#4A3AFF"/>
<circle cx="1562.56" cy="376.117" r="7.60226" fill="#B062FF"/>
<circle cx="1718.2" cy="440.876" r="7.60226" fill="#4A3AFF"/>
<circle cx="1770.47" cy="392.732" r="7.60226" fill="#4A3AFF"/>
<circle cx="1843.67" cy="448.055" r="7.60226" fill="#4A3AFF"/>
</g>
</g>
</g>
<rect width="1920" height="1080" fill="url(#paint0_linear_46_49)"/>
</g>
<defs>
<linearGradient id="paint0_linear_46_49" x1="960" y1="-37" x2="960" y2="915" gradientUnits="userSpaceOnUse">
<stop stop-color="#FFCC00"/>
<stop offset="1" stop-color="#FFCC00" stop-opacity="0"/>
</linearGradient>
<clipPath id="clip0_46_49">
<rect width="1920" height="1080" fill="white"/>
</clipPath>
<clipPath id="clip1_46_49">
<rect y="703.114" width="623.113" height="623.113" rx="21.1859" fill="white"/>
</clipPath>
<clipPath id="clip2_46_49">
<rect x="648.443" y="703.114" width="623.113" height="623.113" rx="21.1859" fill="white"/>
</clipPath>
<clipPath id="clip3_46_49">
<rect x="1296.89" y="703.114" width="623.113" height="623.113" rx="21.1859" fill="white"/>
</clipPath>
<clipPath id="clip4_46_49">
<rect y="80" width="623.113" height="623.113" rx="21.1859" fill="white"/>
</clipPath>
<clipPath id="clip5_46_49">
<rect x="648.443" y="79.9999" width="623.113" height="623.113" rx="21.1859" fill="white"/>
</clipPath>
<clipPath id="clip6_46_49">
<rect x="1296.89" y="79.9999" width="623.113" height="623.113" rx="21.1859" fill="white"/>
</clipPath>
</defs>
</svg>
